{
  "accessors": [
    {
      "bufferView": 2,
      "componentType": 5126,
      "count": 6032,
      "max": [
        0.5112037658691406,
        2.8630199432373047,
        0.5112035274505615
      ],
      "min": [
        -0.5112036466598511,
        -0.1005086749792099,
        -0.5112037062644958
      ],
      "type": "VEC3"
    },
    {
      "bufferView": 2,
      "byteOffset": 72384,
      "componentType": 5126,
      "count": 6032,
      "max": [
        0.9987956285476685,
        1.0,
        1.0
      ],
      "min": [
        -1.0,
        -1.0,
        -0.9989739060401917
      ],
      "type": "VEC3"
    },
    {
      "bufferView": 1,
      "componentType": 5126,
      "count": 6032,
      "max": [
        0.6182309985160828,
        0.7059307098388672
      ],
      "min": [
        0.1026570200920105,
        0.16391973197460175
      ],
      "type": "VEC2"
    },
    {
      "bufferView": 0,
      "componentType": 5125,
      "count": 22224,
      "type": "SCALAR"
    },
    {
      "bufferView": 2,
      "byteOffset": 144768,
      "componentType": 5126,
      "count": 888,
      "max": [
        2.1423091888427734,
        1.065966248512268,
        3.364259719848633
      ],
      "min": [
        -0.45469003915786743,
        -1.065966248512268,
        0.5711166858673096
      ],
      "type": "VEC3"
    },
    {
      "bufferView": 2,
      "byteOffset": 155424,
      "componentType": 5126,
      "count": 888,
      "max": [
        0.9923459887504578,
        1.0,
        0.9808788895606995
      ],
      "min": [
        -0.9923459887504578,
        -1.0,
        -0.9814615845680237
      ],
      "type": "VEC3"
    },
    {
      "bufferView": 1,
      "byteOffset": 48256,
      "componentType": 5126,
      "count": 888,
      "max": [
        0.2517387568950653,
        0.7092832326889038
      ],
      "min": [
        0.12874725461006165,
        0.14367705583572388
      ],
      "type": "VEC2"
    },
    {
      "bufferView": 0,
      "byteOffset": 88896,
      "componentType": 5125,
      "count": 4326,
      "type": "SCALAR"
    },
    {
      "bufferView": 2,
      "byteOffset": 166080,
      "componentType": 5126,
      "count": 5886,
      "max": [
        1.6669996976852417,
        1.4323779344558716,
        2.4858126640319824
      ],
      "min": [
        -2.7321860790252686,
        -1.4323779344558716,
        0.3971034586429596
      ],
      "type": "VEC3"
    },
    {
      "bufferView": 2,
      "byteOffset": 236712,
      "componentType": 5126,
      "count": 5886,
      "max": [
        1.0,
        1.0,
        1.0
      ],
      "min": [
        -1.0,
        -1.0,
        -1.0
      ],
      "type": "VEC3"
    },
    {
      "bufferView": 1,
      "byteOffset": 55360,
      "componentType": 5126,
      "count": 5886,
      "max": [
        0.9495208263397217,
        0.9021124243736267
      ],
      "min": [
        0.1440306305885315,
        0.1482839584350586
      ],
      "type": "VEC2"
    },
    {
      "bufferView": 0,
      "byteOffset": 106200,
      "componentType": 5125,
      "count": 22014,
      "type": "SCALAR"
    },
    {
      "bufferView": 2,
      "byteOffset": 307344,
      "componentType": 5126,
      "count": 810,
      "max": [
        2.375507116317749,
        1.2519242763519287,
        1.3079067468643188
      ],
      "min": [
        -0.6935928463935852,
        -1.2519242763519287,
        0.46976569294929504
      ],
      "type": "VEC3"
    },
    {
      "bufferView": 2,
      "byteOffset": 317064,
      "componentType": 5126,
      "count": 810,
      "max": [
        1.0,
        1.0,
        1.0
      ],
      "min": [
        -1.0,
        -1.0,
        -1.0
      ],
      "type": "VEC3"
    },
    {
      "bufferView": 1,
      "byteOffset": 102448,
      "componentType": 5126,
      "count": 810,
      "max": [
        0.9876260757446289,
        0.7384238243103027
      ],
      "min": [
        0.6723930239677429,
        0.6073783040046692
      ],
      "type": "VEC2"
    },
    {
      "bufferView": 0,
      "byteOffset": 194256,
      "componentType": 5125,
      "count": 2994,
      "type": "SCALAR"
    },
    {
      "bufferView": 2,
      "byteOffset": 326784,
      "componentType": 5126,
      "count": 6032,
      "max": [
        0.5112037658691406,
        2.9838905334472656,
        0.5112035274505615
      ],
      "min": [
        -0.5112036466598511,
        -0.1005086749792099,
        -0.5112037062644958
      ],
      "type": "VEC3"
    },
    {
      "bufferView": 2,
      "byteOffset": 399168,
      "componentType": 5126,
      "count": 6032,
      "max": [
        0.9987956285476685,
        1.0,
        1.0
      ],
      "min": [
        -1.0,
        -1.0,
        -0.9989739060401917
      ],
      "type": "VEC3"
    },
    {
      "bufferView": 1,
      "byteOffset": 108928,
      "componentType": 5126,
      "count": 6032,
      "max": [
        0.6182309985160828,
        0.7059307098388672
      ],
      "min": [
        0.1026570200920105,
        0.16391973197460175
      ],
      "type": "VEC2"
    },
    {
      "bufferView": 0,
      "byteOffset": 206232,
      "componentType": 5125,
      "count": 22224,
      "type": "SCALAR"
    }
  ],
  "asset": {
    "extras": {
      "author": "farooq.smurf (https://sketchfab.com/farooq.smurf)",
      "license": "CC-BY-4.0 (http://creativecommons.org/licenses/by/4.0/)",
      "source": "https://sketchfab.com/3d-models/delivery-truck-6842eac23e6d4484bad081522b1602d8",
      "title": "Delivery Truck"
    },
    "generator": "Sketchfab-15.53.0",
    "version": "2.0"
  },
  "bufferViews": [
    {
      "buffer": 0,
      "byteLength": 295128,
      "name": "floatBufferViews",
      "target": 34963
    },
    {
      "buffer": 0,
      "byteLength": 157184,
      "byteOffset": 295128,
      "byteStride": 8,
      "name": "floatBufferViews",
      "target": 34962
    },
    {
      "buffer": 0,
      "byteLength": 471552,
      "byteOffset": 452312,
      "byteStride": 12,
      "name": "floatBufferViews",
      "target": 34962
    }
  ],
  "buffers": [
    {
      "byteLength": 923864,
      "uri": "scene.bin"
    }
  ],
  "images": [
    {
      "uri": "textures/Material.001_baseColor.png"
    }
  ],
  "materials": [
    {
      "doubleSided": true,
      "name": "Material.001",
      "pbrMetallicRoughness": {
        "baseColorTexture": {
          "index": 0
        },
        "metallicFactor": 0.0,
        "roughnessFactor": 0.8211145618000169
      }
    },
    {
      "doubleSided": true,
      "name": "Material.004",
      "pbrMetallicRoughness": {
        "baseColorTexture": {
          "index": 0
        },
        "metallicFactor": 0.0,
        "roughnessFactor": 0.8211145618000169
      }
    },
    {
      "doubleSided": true,
      "name": "Material.002",
      "pbrMetallicRoughness": {
        "baseColorTexture": {
          "index": 0
        },
        "metallicFactor": 0.0,
        "roughnessFactor": 0.8211145618000169
      }
    },
    {
      "doubleSided": true,
      "name": "Material.007",
      "pbrMetallicRoughness": {
        "baseColorTexture": {
          "index": 0
        },
        "metallicFactor": 0.0,
        "roughnessFactor": 0.8211145618000169
      }
    }
  ],
  "meshes": [
    {
      "name": "F L_Material.001_0",
      "primitives": [
        {
          "attributes": {
            "NORMAL": 1,
            "POSITION": 0,
            "TEXCOORD_0": 2
          },
          "indices": 3,
          "material": 0,
          "mode": 4
        }
      ]
    },
    {
      "name": "Box_Material.004_0",
      "primitives": [
        {
          "attributes": {
            "NORMAL": 5,
            "POSITION": 4,
            "TEXCOORD_0": 6
          },
          "indices": 7,
          "material": 1,
          "mode": 4
        }
      ]
    },
    {
      "name": "Body_Material.002_0",
      "primitives": [
        {
          "attributes": {
            "NORMAL": 9,
            "POSITION": 8,
            "TEXCOORD_0": 10
          },
          "indices": 11,
          "material": 2,
          "mode": 4
        }
      ]
    },
    {
      "name": "Cube_Material.007_0",
      "primitives": [
        {
          "attributes": {
            "NORMAL": 13,
            "POSITION": 12,
            "TEXCOORD_0": 14
          },
          "indices": 15,
          "material": 3,
          "mode": 4
        }
      ]
    },
    {
      "name": "F L.001_Material.001_0",
      "primitives": [
        {
          "attributes": {
            "NORMAL": 17,
            "POSITION": 16,
            "TEXCOORD_0": 18
          },
          "indices": 19,
          "material": 0,
          "mode": 4
        }
      ]
    }
  ],
  "nodes": [
    {
      "children": [
        1
      ],
      "matrix": [
        1.0,
        0.0,
        0.0,
        0.0,
        0.0,
        2.220446049250313e-16,
        -1.0,
        0.0,
        0.0,
        1.0,
        2.220446049250313e-16,
        0.0,
        0.0,
        0.0,
        0.0,
        1.0
      ],
      "name": "Sketchfab_model"
    },
    {
      "children": [
        2
      ],
      "matrix": [
        0.009999999776482582,
        0.0,
        0.0,
        0.0,
        0.0,
        0.0,
        0.009999999776482582,
        0.0,
        0.0,
        -0.009999999776482582,
        0.0,
        0.0,
        0.0,
        0.0,
        0.0,
        1.0
      ],
      "name": "37f0b249c2ef401a8163f44be4cb4afc.fbx"
    },
    {
      "children": [
        3,
        5,
        7,
        9,
        11
      ],
      "name": "RootNode"
    },
    {
      "children": [
        4
      ],
      "matrix": [
        84.25881958007813,
        0.0,
        0.0,
        0.0,
        -0.0,
        -1.3727504130740075e-05,
        -84.25881958007702,
        0.0,
        0.0,
        84.25881958007702,
        -1.3727504130740075e-05,
        0.0,
        -172.66159057617188,
        44.81279373168945,
        116.38296508789063,
        1.0
      ],
      "name": "F L"
    },
    {
      "mesh": 0,
      "name": "F L_Material.001_0"
    },
    {
      "children": [
        6
      ],
      "matrix": [
        100.0,
        0.0,
        0.0,
        0.0,
        0.0,
        -1.5452445717190424e-05,
        -94.84643554687375,
        0.0,
        0.0,
        99.99999999999868,
        -1.629206793918314e-05,
        0.0,
        0.0,
        0.0,
        0.0,
        1.0
      ],
      "name": "Box"
    },
    {
      "mesh": 1,
      "name": "Box_Material.004_0"
    },
    {
      "children": [
        8
      ],
      "matrix": [
        100.0,
        0.0,
        0.0,
        0.0,
        0.0,
        -1.629206793918314e-05,
        -99.99999999999868,
        0.0,
        0.0,
        99.99999999999868,
        -1.629206793918314e-05,
        0.0,
        0.0,
        0.0,
        0.0,
        1.0
      ],
      "name": "Body"
    },
    {
      "mesh": 2,
      "name": "Body_Material.002_0"
    },
    {
      "children": [
        10
      ],
      "matrix": [
        100.0,
        0.0,
        0.0,
        0.0,
        0.0,
        -1.629206793918314e-05,
        -99.99999999999868,
        0.0,
        0.0,
        99.99999999999868,
        -1.629206793918314e-05,
        0.0,
        0.0,
        0.0,
        0.0,
        1.0
      ],
      "name": "Cube"
    },
    {
      "mesh": 3,
      "name": "Cube_Material.007_0"
    },
    {
      "children": [
        12
      ],
      "matrix": [
        84.25881958007813,
        0.0,
        0.0,
        0.0,
        0.0,
        -1.3727504130740075e-05,
        -84.25881958007702,
        0.0,
        0.0,
        84.25881958007702,
        -1.3727504130740075e-05,
        0.0,
        110.80271911621094,
        42.9941520690918,
        121.47517395019531,
        1.0
      ],
      "name": "F L.001"
    },
    {
      "mesh": 4,
      "name": "F L.001_Material.001_0"
    }
  ],
  "samplers": [
    {
      "magFilter": 9729,
      "minFilter": 9987,
      "wrapS": 10497,
      "wrapT": 10497
    }
  ],
  "scene": 0,
  "scenes": [
    {
      "name": "Sketchfab_Scene",
      "nodes": [
        0
      ]
    }
  ],
  "textures": [
    {
      "sampler": 0,
      "source": 0
    }
  ]
}
