{
  "accessors": [
    {
      "bufferView": 2,
      "componentType": 5126,
      "count": 65532,
      "max": [
        0.3933198153972626,
        0.9417999386787415,
        0.53290855884552
      ],
      "min": [
        -0.3517322838306427,
        -0.9500831961631775,
        -0.05794287845492363
      ],
      "type": "VEC3"
    },
    {
      "bufferView": 2,
      "byteOffset": 786384,
      "componentType": 5126,
      "count": 65532,
      "max": [
        0.9998760223388672,
        0.9999380111694336,
        1.0
      ],
      "min": [
        -0.9999690055847168,
        -0.9999690055847168,
        -0.9999380111694336
      ],
      "type": "VEC3"
    },
    {
      "bufferView": 3,
      "componentType": 5126,
      "count": 65532,
      "max": [
        0.9999912977218628,
        0.9999620914459229,
        0.9999836087226868,
        1.0
      ],
      "min": [
        -0.9999907612800598,
        -0.9999926090240479,
        -0.9999680519104004,
        -1.0
      ],
      "type": "VEC4"
    },
    {
      "bufferView": 1,
      "componentType": 5126,
      "count": 65532,
      "max": [
        0.9991701245307922,
        0.999977171421051
      ],
      "min": [
        0.00029191485373303294,
        0.006127496715635061
      ],
      "type": "VEC2"
    },
    {
      "bufferView": 1,
      "byteOffset": 524256,
      "componentType": 5126,
      "count": 65532,
      "max": [
        0.9991701245307922,
        0.999977171421051
      ],
      "min": [
        0.00029191485373303294,
        0.006127496715635061
      ],
      "type": "VEC2"
    },
    {
      "bufferView": 1,
      "byteOffset": 1048512,
      "componentType": 5126,
      "count": 65532,
      "max": [
        0.9991701245307922,
        0.999977171421051
      ],
      "min": [
        0.00029191485373303294,
        0.006127496715635061
      ],
      "type": "VEC2"
    },
    {
      "bufferView": 1,
      "byteOffset": 1572768,
      "componentType": 5126,
      "count": 65532,
      "max": [
        0.9991701245307922,
        0.999977171421051
      ],
      "min": [
        0.00029191485373303294,
        0.006127496715635061
      ],
      "type": "VEC2"
    },
    {
      "bufferView": 1,
      "byteOffset": 2097024,
      "componentType": 5126,
      "count": 65532,
      "max": [
        0.9991701245307922,
        0.999977171421051
      ],
      "min": [
        0.00029191485373303294,
        0.006127496715635061
      ],
      "type": "VEC2"
    },
    {
      "bufferView": 0,
      "componentType": 5125,
      "count": 334110,
      "type": "SCALAR"
    },
    {
      "bufferView": 2,
      "byteOffset": 1572768,
      "componentType": 5126,
      "count": 65532,
      "max": [
        0.289747029542923,
        0.9364707469940186,
        0.1739952713251114
      ],
      "min": [
        -0.3811590075492859,
        -0.9499673247337341,
        -0.534447193145752
      ],
      "type": "VEC3"
    },
    {
      "bufferView": 2,
      "byteOffset": 2359152,
      "componentType": 5126,
      "count": 65532,
      "max": [
        0.9999690055847168,
        1.0,
        0.9998451471328735
      ],
      "min": [
        -1.0,
        -0.9999690055847168,
        -0.9999690055847168
      ],
      "type": "VEC3"
    },
    {
      "bufferView": 3,
      "byteOffset": 1048512,
      "componentType": 5126,
      "count": 65532,
      "max": [
        0.9999983906745911,
        1.0,
        0.9999441504478455,
        1.0
      ],
      "min": [
        -0.9999993443489075,
        -0.9999944567680359,
        -0.9999682903289795,
        -1.0
      ],
      "type": "VEC4"
    },
    {
      "bufferView": 1,
      "byteOffset": 2621280,
      "componentType": 5126,
      "count": 65532,
      "max": [
        0.9991701245307922,
        0.999977171421051
      ],
      "min": [
        4.79289774375502e-05,
        2.276897430419922e-05
      ],
      "type": "VEC2"
    },
    {
      "bufferView": 1,
      "byteOffset": 3145536,
      "componentType": 5126,
      "count": 65532,
      "max": [
        0.9991701245307922,
        0.999977171421051
      ],
      "min": [
        4.79289774375502e-05,
        2.276897430419922e-05
      ],
      "type": "VEC2"
    },
    {
      "bufferView": 1,
      "byteOffset": 3669792,
      "componentType": 5126,
      "count": 65532,
      "max": [
        0.9991701245307922,
        0.999977171421051
      ],
      "min": [
        4.79289774375502e-05,
        2.276897430419922e-05
      ],
      "type": "VEC2"
    },
    {
      "bufferView": 1,
      "byteOffset": 4194048,
      "componentType": 5126,
      "count": 65532,
      "max": [
        0.9991701245307922,
        0.999977171421051
      ],
      "min": [
        4.79289774375502e-05,
        2.276897430419922e-05
      ],
      "type": "VEC2"
    },
    {
      "bufferView": 1,
      "byteOffset": 4718304,
      "componentType": 5126,
      "count": 65532,
      "max": [
        0.9991701245307922,
        0.999977171421051
      ],
      "min": [
        4.79289774375502e-05,
        2.276897430419922e-05
      ],
      "type": "VEC2"
    },
    {
      "bufferView": 0,
      "byteOffset": 1336440,
      "componentType": 5125,
      "count": 328197,
      "type": "SCALAR"
    },
    {
      "bufferView": 2,
      "byteOffset": 3145536,
      "componentType": 5126,
      "count": 65532,
      "max": [
        0.37165525555610657,
        0.9479401707649231,
        0.1847696304321289
      ],
      "min": [
        -0.3937869966030121,
        -0.9456807971000671,
        -0.30065539479255676
      ],
      "type": "VEC3"
    },
    {
      "bufferView": 2,
      "byteOffset": 3931920,
      "componentType": 5126,
      "count": 65532,
      "max": [
        0.9999690055847168,
        0.9999690055847168,
        0.9999380111694336
      ],
      "min": [
        -0.9999690055847168,
        -1.0,
        -0.9999690055847168
      ],
      "type": "VEC3"
    },
    {
      "bufferView": 3,
      "byteOffset": 2097024,
      "componentType": 5126,
      "count": 65532,
      "max": [
        0.9999986290931702,
        0.9999602437019348,
        0.9999836087226868,
        1.0
      ],
      "min": [
        -0.9999997019767761,
        -0.9999682903289795,
        -0.9999997019767761,
        -1.0
      ],
      "type": "VEC4"
    },
    {
      "bufferView": 1,
      "byteOffset": 5242560,
      "componentType": 5126,
      "count": 65532,
      "max": [
        0.9991701245307922,
        0.999977171421051
      ],
      "min": [
        4.79289774375502e-05,
        0.006127496715635061
      ],
      "type": "VEC2"
    },
    {
      "bufferView": 1,
      "byteOffset": 5766816,
      "componentType": 5126,
      "count": 65532,
      "max": [
        0.9991701245307922,
        0.999977171421051
      ],
      "min": [
        4.79289774375502e-05,
        0.006127496715635061
      ],
      "type": "VEC2"
    },
    {
      "bufferView": 1,
      "byteOffset": 6291072,
      "componentType": 5126,
      "count": 65532,
      "max": [
        0.9991701245307922,
        0.999977171421051
      ],
      "min": [
        4.79289774375502e-05,
        0.006127496715635061
      ],
      "type": "VEC2"
    },
    {
      "bufferView": 1,
      "byteOffset": 6815328,
      "componentType": 5126,
      "count": 65532,
      "max": [
        0.9991701245307922,
        0.999977171421051
      ],
      "min": [
        4.79289774375502e-05,
        0.006127496715635061
      ],
      "type": "VEC2"
    },
    {
      "bufferView": 1,
      "byteOffset": 7339584,
      "componentType": 5126,
      "count": 65532,
      "max": [
        0.9991701245307922,
        0.999977171421051
      ],
      "min": [
        4.79289774375502e-05,
        0.006127496715635061
      ],
      "type": "VEC2"
    },
    {
      "bufferView": 0,
      "byteOffset": 2649228,
      "componentType": 5125,
      "count": 325254,
      "type": "SCALAR"
    },
    {
      "bufferView": 2,
      "byteOffset": 4718304,
      "componentType": 5126,
      "count": 12405,
      "max": [
        0.3900759220123291,
        0.9379768371582031,
        0.23365968465805054
      ],
      "min": [
        -0.3917016386985779,
        -0.9322417974472046,
        0.03439214080572128
      ],
      "type": "VEC3"
    },
    {
      "bufferView": 2,
      "byteOffset": 4867164,
      "componentType": 5126,
      "count": 12405,
      "max": [
        0.9998760223388672,
        0.9997212290763855,
        0.9999690055847168
      ],
      "min": [
        -0.9999380111694336,
        -0.9999690055847168,
        -0.9998451471328735
      ],
      "type": "VEC3"
    },
    {
      "bufferView": 3,
      "byteOffset": 3145536,
      "componentType": 5126,
      "count": 12405,
      "max": [
        0.9994649291038513,
        0.9999398589134216,
        0.9998499155044556,
        1.0
      ],
      "min": [
        -0.9999310970306396,
        -0.999505877494812,
        -0.9999680519104004,
        -1.0
      ],
      "type": "VEC4"
    },
    {
      "bufferView": 1,
      "byteOffset": 7863840,
      "componentType": 5126,
      "count": 12405,
      "max": [
        0.9989261031150818,
        0.9994888305664063
      ],
      "min": [
        4.79289774375502e-05,
        2.276897430419922e-05
      ],
      "type": "VEC2"
    },
    {
      "bufferView": 1,
      "byteOffset": 7963080,
      "componentType": 5126,
      "count": 12405,
      "max": [
        0.9989261031150818,
        0.9994888305664063
      ],
      "min": [
        4.79289774375502e-05,
        2.276897430419922e-05
      ],
      "type": "VEC2"
    },
    {
      "bufferView": 1,
      "byteOffset": 8062320,
      "componentType": 5126,
      "count": 12405,
      "max": [
        0.9989261031150818,
        0.9994888305664063
      ],
      "min": [
        4.79289774375502e-05,
        2.276897430419922e-05
      ],
      "type": "VEC2"
    },
    {
      "bufferView": 1,
      "byteOffset": 8161560,
      "componentType": 5126,
      "count": 12405,
      "max": [
        0.9989261031150818,
        0.9994888305664063
      ],
      "min": [
        4.79289774375502e-05,
        2.276897430419922e-05
      ],
      "type": "VEC2"
    },
    {
      "bufferView": 1,
      "byteOffset": 8260800,
      "componentType": 5126,
      "count": 12405,
      "max": [
        0.9989261031150818,
        0.9994888305664063
      ],
      "min": [
        4.79289774375502e-05,
        2.276897430419922e-05
      ],
      "type": "VEC2"
    },
    {
      "bufferView": 0,
      "byteOffset": 3950244,
      "componentType": 5125,
      "count": 52854,
      "type": "SCALAR"
    }
  ],
  "asset": {
    "extras": {
      "author": "restore50 (https://sketchfab.com/restore50)",
      "license": "CC-BY-4.0 (http://creativecommons.org/licenses/by/4.0/)",
      "source": "https://sketchfab.com/3d-models/walking-in-a-giants-varsity-jacket-768f09eda5474778a1023894792e0e76",
      "title": "Walking in a Giants varsity jacket"
    },
    "generator": "Sketchfab-17.14.0",
    "version": "2.0"
  },
  "bufferViews": [
    {
      "buffer": 0,
      "byteLength": 4161660,
      "name": "floatBufferViews",
      "target": 34963
    },
    {
      "buffer": 0,
      "byteLength": 8360040,
      "byteOffset": 4161660,
      "byteStride": 8,
      "name": "floatBufferViews",
      "target": 34962
    },
    {
      "buffer": 0,
      "byteLength": 5016024,
      "byteOffset": 12521700,
      "byteStride": 12,
      "name": "floatBufferViews",
      "target": 34962
    },
    {
      "buffer": 0,
      "byteLength": 3344016,
      "byteOffset": 17537724,
      "byteStride": 16,
      "name": "floatBufferViews",
      "target": 34962
    }
  ],
  "buffers": [
    {
      "byteLength": 20881740,
      "uri": "scene.bin"
    }
  ],
  "images": [
    {
      "uri": "textures/material_0_baseColor.png"
    },
    {
      "uri": "textures/material_0_metallicRoughness.png"
    },
    {
      "uri": "textures/material_0_emissive.png"
    },
    {
      "uri": "textures/material_0_normal.png"
    }
  ],
  "materials": [
    {
      "doubleSided": true,
      "emissiveFactor": [
        1.0,
        1.0,
        1.0
      ],
      "emissiveTexture": {
        "index": 2,
        "texCoord": 2
      },
      "name": "material_0",
      "normalTexture": {
        "index": 3,
        "texCoord": 3
      },
      "pbrMetallicRoughness": {
        "baseColorTexture": {
          "index": 0
        },
        "metallicRoughnessTexture": {
          "index": 1,
          "texCoord": 1
        }
      }
    }
  ],
  "meshes": [
    {
      "name": "Object_0",
      "primitives": [
        {
          "attributes": {
            "NORMAL": 1,
            "POSITION": 0,
            "TANGENT": 2,
            "TEXCOORD_0": 3,
            "TEXCOORD_1": 4,
            "TEXCOORD_2": 5,
            "TEXCOORD_3": 6,
            "TEXCOORD_4": 7
          },
          "indices": 8,
          "material": 0,
          "mode": 4
        }
      ]
    },
    {
      "name": "Object_1",
      "primitives": [
        {
          "attributes": {
            "NORMAL": 10,
            "POSITION": 9,
            "TANGENT": 11,
            "TEXCOORD_0": 12,
            "TEXCOORD_1": 13,
            "TEXCOORD_2": 14,
            "TEXCOORD_3": 15,
            "TEXCOORD_4": 16
          },
          "indices": 17,
          "material": 0,
          "mode": 4
        }
      ]
    },
    {
      "name": "Object_2",
      "primitives": [
        {
          "attributes": {
            "NORMAL": 19,
            "POSITION": 18,
            "TANGENT": 20,
            "TEXCOORD_0": 21,
            "TEXCOORD_1": 22,
            "TEXCOORD_2": 23,
            "TEXCOORD_3": 24,
            "TEXCOORD_4": 25
          },
          "indices": 26,
          "material": 0,
          "mode": 4
        }
      ]
    },
    {
      "name": "Object_3",
      "primitives": [
        {
          "attributes": {
            "NORMAL": 28,
            "POSITION": 27,
            "TANGENT": 29,
            "TEXCOORD_0": 30,
            "TEXCOORD_1": 31,
            "TEXCOORD_2": 32,
            "TEXCOORD_3": 33,
            "TEXCOORD_4": 34
          },
          "indices": 35,
          "material": 0,
          "mode": 4
        }
      ]
    }
  ],
  "nodes": [
    {
      "children": [
        1
      ],
      "matrix": [
        1.0,
        0.0,
        0.0,
        0.0,
        0.0,
        2.220446049250313e-16,
        -1.0,
        0.0,
        0.0,
        1.0,
        2.220446049250313e-16,
        0.0,
        0.0,
        0.0,
        0.0,
        1.0
      ],
      "name": "Sketchfab_model"
    },
    {
      "children": [
        2
      ],
      "name": "root"
    },
    {
      "children": [
        3
      ],
      "matrix": [
        1.0,
        0.0,
        0.0,
        0.0,
        0.0,
        2.220446049250313e-16,
        1.0,
        0.0,
        0.0,
        -1.0,
        2.220446049250313e-16,
        0.0,
        0.0,
        0.0,
        0.0,
        1.0
      ],
      "name": "GLTF_SceneRootNode"
    },
    {
      "children": [
        4
      ],
      "name": "_1"
    },
    {
      "children": [
        5,
        6,
        7,
        8
      ],
      "name": "mesh_0_0"
    },
    {
      "mesh": 0,
      "name": "Object_5"
    },
    {
      "mesh": 1,
      "name": "Object_6"
    },
    {
      "mesh": 2,
      "name": "Object_7"
    },
    {
      "mesh": 3,
      "name": "Object_8"
    }
  ],
  "samplers": [
    {
      "magFilter": 9729,
      "minFilter": 9987,
      "wrapS": 10497,
      "wrapT": 10497
    }
  ],
  "scene": 0,
  "scenes": [
    {
      "name": "Sketchfab_Scene",
      "nodes": [
        0
      ]
    }
  ],
  "textures": [
    {
      "sampler": 0,
      "source": 0
    },
    {
      "sampler": 0,
      "source": 1
    },
    {
      "sampler": 0,
      "source": 2
    },
    {
      "sampler": 0,
      "source": 3
    }
  ]
}
