{
  "accessors": [
    {
      "bufferView": 2,
      "componentType": 5126,
      "count": 65532,
      "max": [
        13.458127975463867,
        11.381242752075195,
        27.939992904663086
      ],
      "min": [
        -14.429235458374023,
        -13.082854270935059,
        3.5762786865234375e-07
      ],
      "type": "VEC3"
    },
    {
      "bufferView": 2,
      "byteOffset": 786384,
      "componentType": 5126,
      "count": 65532,
      "max": [
        1.0,
        1.0,
        1.0
      ],
      "min": [
        -1.0,
        -1.0,
        -1.0
      ],
      "type": "VEC3"
    },
    {
      "bufferView": 3,
      "componentType": 5126,
      "count": 65532,
      "max": [
        1.0,
        1.0,
        1.0,
        1.0
      ],
      "min": [
        -1.0,
        -1.0,
        -1.0,
        -1.0
      ],
      "type": "VEC4"
    },
    {
      "bufferView": 1,
      "componentType": 5126,
      "count": 65532,
      "max": [
        0.9900636076927185,
        0.992362380027771
      ],
      "min": [
        0.02030859887599945,
        0.009109407663345337
      ],
      "type": "VEC2"
    },
    {
      "bufferView": 1,
      "byteOffset": 524256,
      "componentType": 5126,
      "count": 65532,
      "max": [
        0.9900636076927185,
        0.992362380027771
      ],
      "min": [
        0.02030859887599945,
        0.009109407663345337
      ],
      "type": "VEC2"
    },
    {
      "bufferView": 1,
      "byteOffset": 1048512,
      "componentType": 5126,
      "count": 65532,
      "max": [
        0.9900636076927185,
        0.992362380027771
      ],
      "min": [
        0.02030859887599945,
        0.009109407663345337
      ],
      "type": "VEC2"
    },
    {
      "bufferView": 0,
      "componentType": 5125,
      "count": 324738,
      "type": "SCALAR"
    },
    {
      "bufferView": 2,
      "byteOffset": 1572768,
      "componentType": 5126,
      "count": 42033,
      "max": [
        9.642401695251465,
        10.542214393615723,
        23.208478927612305
      ],
      "min": [
        -11.365814208984375,
        -9.327292442321777,
        0.580637514591217
      ],
      "type": "VEC3"
    },
    {
      "bufferView": 2,
      "byteOffset": 2077164,
      "componentType": 5126,
      "count": 42033,
      "max": [
        1.0,
        1.0,
        1.0
      ],
      "min": [
        -1.0,
        -1.0,
        -1.0
      ],
      "type": "VEC3"
    },
    {
      "bufferView": 3,
      "byteOffset": 1048512,
      "componentType": 5126,
      "count": 42033,
      "max": [
        1.0,
        1.0,
        1.0,
        1.0
      ],
      "min": [
        -1.0,
        -1.0,
        -1.0,
        -1.0
      ],
      "type": "VEC4"
    },
    {
      "bufferView": 1,
      "byteOffset": 1572768,
      "componentType": 5126,
      "count": 42033,
      "max": [
        0.9912527203559875,
        0.988276481628418
      ],
      "min": [
        0.020326169207692146,
        0.0094384104013443
      ],
      "type": "VEC2"
    },
    {
      "bufferView": 1,
      "byteOffset": 1909032,
      "componentType": 5126,
      "count": 42033,
      "max": [
        0.9912527203559875,
        0.988276481628418
      ],
      "min": [
        0.020326169207692146,
        0.0094384104013443
      ],
      "type": "VEC2"
    },
    {
      "bufferView": 1,
      "byteOffset": 2245296,
      "componentType": 5126,
      "count": 42033,
      "max": [
        0.9912527203559875,
        0.988276481628418
      ],
      "min": [
        0.020326169207692146,
        0.0094384104013443
      ],
      "type": "VEC2"
    },
    {
      "bufferView": 0,
      "byteOffset": 1298952,
      "componentType": 5125,
      "count": 198762,
      "type": "SCALAR"
    }
  ],
  "asset": {
    "extras": {
      "author": "nguyentrongtam0512 (https://sketchfab.com/nguyentrongtam1998)",
      "license": "CC-BY-4.0 (http://creativecommons.org/licenses/by/4.0/)",
      "source": "https://sketchfab.com/3d-models/sewing-machine-bb71e55e0bd0430b83adae77830c245d",
      "title": "sewing machine"
    },
    "generator": "Sketchfab-16.68.0",
    "version": "2.0"
  },
  "bufferViews": [
    {
      "buffer": 0,
      "byteLength": 2094000,
      "name": "floatBufferViews",
      "target": 34963
    },
    {
      "buffer": 0,
      "byteLength": 2581560,
      "byteOffset": 2094000,
      "byteStride": 8,
      "name": "floatBufferViews",
      "target": 34962
    },
    {
      "buffer": 0,
      "byteLength": 2581560,
      "byteOffset": 4675560,
      "byteStride": 12,
      "name": "floatBufferViews",
      "target": 34962
    },
    {
      "buffer": 0,
      "byteLength": 1721040,
      "byteOffset": 7257120,
      "byteStride": 16,
      "name": "floatBufferViews",
      "target": 34962
    }
  ],
  "buffers": [
    {
      "byteLength": 8978160,
      "uri": "scene.bin"
    }
  ],
  "images": [
    {
      "uri": "textures/PTRCYL7NRNWT1XPM_MAT_MR_baseColor.png"
    },
    {
      "uri": "textures/PTRCYL7NRNWT1XPM_MAT_MR_metallicRoughness.png"
    },
    {
      "uri": "textures/PTRCYL7NRNWT1XPM_MAT_MR_normal.png"
    }
  ],
  "materials": [
    {
      "doubleSided": true,
      "name": "PTRCYL7NRNWT1XPM_MAT_MR",
      "normalTexture": {
        "index": 2
      },
      "occlusionTexture": {
        "index": 1
      },
      "pbrMetallicRoughness": {
        "baseColorTexture": {
          "index": 0
        },
        "metallicRoughnessTexture": {
          "index": 1
        }
      }
    }
  ],
  "meshes": [
    {
      "name": "ASSET_PTRCYL7NRNWT1XPM_MAT_MR_0",
      "primitives": [
        {
          "attributes": {
            "NORMAL": 1,
            "POSITION": 0,
            "TANGENT": 2,
            "TEXCOORD_0": 3,
            "TEXCOORD_1": 4,
            "TEXCOORD_2": 5
          },
          "indices": 6,
          "material": 0,
          "mode": 4
        }
      ]
    },
    {
      "name": "ASSET_PTRCYL7NRNWT1XPM_MAT_MR_0",
      "primitives": [
        {
          "attributes": {
            "NORMAL": 8,
            "POSITION": 7,
            "TANGENT": 9,
            "TEXCOORD_0": 10,
            "TEXCOORD_1": 11,
            "TEXCOORD_2": 12
          },
          "indices": 13,
          "material": 0,
          "mode": 4
        }
      ]
    }
  ],
  "nodes": [
    {
      "children": [
        1
      ],
      "matrix": [
        1.0,
        0.0,
        0.0,
        0.0,
        0.0,
        -5.053215392444312e-16,
        1.0,
        0.0,
        0.0,
        -1.0,
        -5.053215392444312e-16,
        0.0,
        0.0,
        0.0,
        0.0,
        1.0
      ],
      "name": "Sketchfab_model"
    },
    {
      "children": [
        2
      ],
      "matrix": [
        0.009999999776482582,
        0.0,
        0.0,
        0.0,
        0.0,
        -0.009999999776482582,
        0.0,
        0.0,
        0.0,
        0.0,
        -0.009999999776482582,
        0.0,
        0.0,
        0.0,
        0.0,
        1.0
      ],
      "name": "PTRCYL7NRNWT1XPM.fbx"
    },
    {
      "children": [
        3
      ],
      "name": "RootNode"
    },
    {
      "children": [
        4,
        5
      ],
      "name": "ASSET"
    },
    {
      "mesh": 0,
      "name": "ASSET_PTRCYL7NRNWT1XPM_MAT_MR_0"
    },
    {
      "mesh": 1,
      "name": "ASSET_PTRCYL7NRNWT1XPM_MAT_MR_0"
    }
  ],
  "samplers": [
    {
      "magFilter": 9729,
      "minFilter": 9987,
      "wrapS": 10497,
      "wrapT": 10497
    }
  ],
  "scene": 0,
  "scenes": [
    {
      "name": "Sketchfab_Scene",
      "nodes": [
        0
      ]
    }
  ],
  "textures": [
    {
      "sampler": 0,
      "source": 0
    },
    {
      "sampler": 0,
      "source": 1
    },
    {
      "sampler": 0,
      "source": 2
    }
  ]
}
