{
  "accessors": [
    {
      "bufferView": 2,
      "componentType": 5126,
      "count": 4288,
      "max": [
        0.222804993391037,
        0.9844769835472107,
        0.15118099749088287
      ],
      "min": [
        -0.313616007566452,
        0.43152499198913574,
        -0.5646129846572876
      ],
      "type": "VEC3"
    },
    {
      "bufferView": 2,
      "byteOffset": 51456,
      "componentType": 5126,
      "count": 4288,
      "max": [
        0.9989351630210876,
        0.998531699180603,
        0.9980222582817078
      ],
      "min": [
        -0.9992865324020386,
        -0.9985142350196838,
        -0.9989500641822815
      ],
      "type": "VEC3"
    },
    {
      "bufferView": 3,
      "componentType": 5126,
      "count": 4288,
      "max": [
        0.9999727606773376,
        0.9999999403953552,
        0.9999647736549377,
        1.0
      ],
      "min": [
        -0.9997345805168152,
        -0.9999986886978149,
        -0.9999706745147705,
        -1.0
      ],
      "type": "VEC4"
    },
    {
      "bufferView": 1,
      "componentType": 5126,
      "count": 4288,
      "max": [
        0.7564799785614014,
        0.8217200040817261
      ],
      "min": [
        0.637470006942749,
        0.6427299976348877
      ],
      "type": "VEC2"
    },
    {
      "bufferView": 0,
      "componentType": 5125,
      "count": 25692,
      "type": "SCALAR"
    },
    {
      "bufferView": 2,
      "byteOffset": 102912,
      "componentType": 5126,
      "count": 4286,
      "max": [
        -0.09720399975776672,
        0.9430410265922546,
        0.2042199969291687
      ],
      "min": [
        -0.5131959915161133,
        0.4312469959259033,
        -0.5645120143890381
      ],
      "type": "VEC3"
    },
    {
      "bufferView": 2,
      "byteOffset": 154344,
      "componentType": 5126,
      "count": 4286,
      "max": [
        0.9999325275421143,
        0.9992280006408691,
        0.9950830340385437
      ],
      "min": [
        -0.9966614842414856,
        -0.9994089603424072,
        -0.978609025478363
      ],
      "type": "VEC3"
    },
    {
      "bufferView": 3,
      "byteOffset": 68608,
      "componentType": 5126,
      "count": 4286,
      "max": [
        0.999813437461853,
        0.9999986290931702,
        1.0,
        1.0
      ],
      "min": [
        -0.9999810457229614,
        -0.9998080730438232,
        -1.0,
        -1.0
      ],
      "type": "VEC4"
    },
    {
      "bufferView": 1,
      "byteOffset": 34304,
      "componentType": 5126,
      "count": 4286,
      "max": [
        0.5070899724960327,
        0.8216699957847595
      ],
      "min": [
        0.39177998900413513,
        0.6452400088310242
      ],
      "type": "VEC2"
    },
    {
      "bufferView": 0,
      "byteOffset": 102768,
      "componentType": 5125,
      "count": 25662,
      "type": "SCALAR"
    },
    {
      "bufferView": 2,
      "byteOffset": 205776,
      "componentType": 5126,
      "count": 2921,
      "max": [
        0.4377540051937103,
        -0.6371560096740723,
        0.4039199948310852
      ],
      "min": [
        -0.5180829763412476,
        -0.8993840217590332,
        -0.0418924018740654
      ],
      "type": "VEC3"
    },
    {
      "bufferView": 2,
      "byteOffset": 240828,
      "componentType": 5126,
      "count": 2921,
      "max": [
        0.999976634979248,
        0.9997742176055908,
        0.9991421699523926
      ],
      "min": [
        -0.999043881893158,
        -0.9992488622665405,
        -0.9998650550842285
      ],
      "type": "VEC3"
    },
    {
      "bufferView": 3,
      "byteOffset": 137184,
      "componentType": 5126,
      "count": 2921,
      "max": [
        0.999944269657135,
        0.9995707273483276,
        0.9999984502792358,
        1.0
      ],
      "min": [
        -0.9999971985816956,
        -0.9985498189926147,
        -0.9999997615814209,
        -1.0
      ],
      "type": "VEC4"
    },
    {
      "bufferView": 1,
      "byteOffset": 68592,
      "componentType": 5126,
      "count": 2921,
      "max": [
        0.6891999840736389,
        0.10326999425888062
      ],
      "min": [
        0.5006899833679199,
        0.06734000146389008
      ],
      "type": "VEC2"
    },
    {
      "bufferView": 0,
      "byteOffset": 205416,
      "componentType": 5125,
      "count": 16824,
      "type": "SCALAR"
    },
    {
      "bufferView": 2,
      "byteOffset": 275880,
      "componentType": 5126,
      "count": 2953,
      "max": [
        0.42225900292396545,
        -0.5425199866294861,
        0.19952499866485596
      ],
      "min": [
        -0.5361419916152954,
        -0.8652369976043701,
        -0.29339998960494995
      ],
      "type": "VEC3"
    },
    {
      "bufferView": 2,
      "byteOffset": 311316,
      "componentType": 5126,
      "count": 2953,
      "max": [
        0.9919329285621643,
        0.9993292093276978,
        0.9999778270721436
      ],
      "min": [
        -0.9980758428573608,
        -0.9997861385345459,
        -0.9997402429580688
      ],
      "type": "VEC3"
    },
    {
      "bufferView": 3,
      "byteOffset": 183920,
      "componentType": 5126,
      "count": 2953,
      "max": [
        0.9999637603759766,
        0.9992498159408569,
        0.9999942183494568,
        1.0
      ],
      "min": [
        -1.0,
        -0.9996218681335449,
        -0.9999819397926331,
        -1.0
      ],
      "type": "VEC4"
    },
    {
      "bufferView": 1,
      "byteOffset": 91960,
      "componentType": 5126,
      "count": 2953,
      "max": [
        0.4103100001811981,
        0.09822999686002731
      ],
      "min": [
        0.21260999143123627,
        0.06229999661445618
      ],
      "type": "VEC2"
    },
    {
      "bufferView": 0,
      "byteOffset": 272712,
      "componentType": 5125,
      "count": 17184,
      "type": "SCALAR"
    },
    {
      "bufferView": 2,
      "byteOffset": 346752,
      "componentType": 5126,
      "count": 264,
      "max": [
        0.029368599876761436,
        0.7389529943466187,
        0.26503199338912964
      ],
      "min": [
        -0.040754299610853195,
        0.6132940053939819,
        0.18383100628852844
      ],
      "type": "VEC3"
    },
    {
      "bufferView": 2,
      "byteOffset": 349920,
      "componentType": 5126,
      "count": 264,
      "max": [
        0.9999856948852539,
        0.9703242182731628,
        0.9352045655250549
      ],
      "min": [
        -0.9694637656211853,
        -0.9426121115684509,
        -0.996401309967041
      ],
      "type": "VEC3"
    },
    {
      "bufferView": 3,
      "byteOffset": 231168,
      "componentType": 5126,
      "count": 264,
      "max": [
        0.9999535083770752,
        0.9999999403953552,
        0.9995971918106079,
        1.0
      ],
      "min": [
        -0.9989063739776611,
        -0.9755039811134338,
        -0.9996066093444824,
        -1.0
      ],
      "type": "VEC4"
    },
    {
      "bufferView": 1,
      "byteOffset": 115584,
      "componentType": 5126,
      "count": 264,
      "max": [
        0.60725998878479,
        0.41683998703956604
      ],
      "min": [
        0.5947499871253967,
        0.3919299840927124
      ],
      "type": "VEC2"
    },
    {
      "bufferView": 0,
      "byteOffset": 341448,
      "componentType": 5125,
      "count": 1284,
      "type": "SCALAR"
    },
    {
      "bufferView": 2,
      "byteOffset": 353088,
      "componentType": 5126,
      "count": 8061,
      "max": [
        0.01978280022740364,
        0.7593719959259033,
        0.30814799666404724
      ],
      "min": [
        -0.08570259809494019,
        0.5427039861679077,
        0.19208599627017975
      ],
      "type": "VEC3"
    },
    {
      "bufferView": 2,
      "byteOffset": 449820,
      "componentType": 5126,
      "count": 8061,
      "max": [
        0.9992433786392212,
        0.9999808073043823,
        0.9999611377716064
      ],
      "min": [
        -0.9989152550697327,
        -0.9997466802597046,
        -0.9998890161514282
      ],
      "type": "VEC3"
    },
    {
      "bufferView": 3,
      "byteOffset": 235392,
      "componentType": 5126,
      "count": 8061,
      "max": [
        0.992989182472229,
        0.9943574070930481,
        0.9996844530105591,
        1.0
      ],
      "min": [
        -0.9995740056037903,
        -0.9999232292175293,
        -0.998449981212616,
        1.0
      ],
      "type": "VEC4"
    },
    {
      "bufferView": 1,
      "byteOffset": 117696,
      "componentType": 5126,
      "count": 8061,
      "max": [
        0.9980469942092896,
        0.2011519968509674
      ],
      "min": [
        0.001953149912878871,
        0.0019531199941411614
      ],
      "type": "VEC2"
    },
    {
      "bufferView": 0,
      "byteOffset": 346584,
      "componentType": 5125,
      "count": 46452,
      "type": "SCALAR"
    },
    {
      "bufferView": 2,
      "byteOffset": 546552,
      "componentType": 5126,
      "count": 7288,
      "max": [
        0.1112539991736412,
        0.7827939987182617,
        0.2926499843597412
      ],
      "min": [
        0.007416239939630032,
        0.5405499935150146,
        0.17927299439907074
      ],
      "type": "VEC3"
    },
    {
      "bufferView": 2,
      "byteOffset": 634008,
      "componentType": 5126,
      "count": 7288,
      "max": [
        0.9965967535972595,
        0.9967231154441833,
        0.9999017715454102
      ],
      "min": [
        -0.9999734163284302,
        -0.9982972741127014,
        -0.9995415210723877
      ],
      "type": "VEC3"
    },
    {
      "bufferView": 3,
      "byteOffset": 364368,
      "componentType": 5126,
      "count": 7288,
      "max": [
        0.9995450377464294,
        0.9990680813789368,
        0.9999880194664001,
        1.0
      ],
      "min": [
        -0.9883396625518799,
        -0.9967508316040039,
        -0.9990022778511047,
        -1.0
      ],
      "type": "VEC4"
    },
    {
      "bufferView": 1,
      "byteOffset": 182184,
      "componentType": 5126,
      "count": 7288,
      "max": [
        0.3081569969654083,
        0.9980469942092896
      ],
      "min": [
        0.0019531199941411614,
        0.0019531199941411614
      ],
      "type": "VEC2"
    },
    {
      "bufferView": 0,
      "byteOffset": 532392,
      "componentType": 5125,
      "count": 41838,
      "type": "SCALAR"
    },
    {
      "bufferView": 2,
      "byteOffset": 721464,
      "componentType": 5126,
      "count": 103,
      "max": [
        -0.03750390186905861,
        0.7569199800491333,
        0.2022559940814972
      ],
      "min": [
        -0.06067860126495361,
        0.7339919805526733,
        0.18325799703598022
      ],
      "type": "VEC3"
    },
    {
      "bufferView": 2,
      "byteOffset": 722700,
      "componentType": 5126,
      "count": 103,
      "max": [
        0.9876359701156616,
        0.9142728447914124,
        0.9650113582611084
      ],
      "min": [
        -0.9848994016647339,
        -0.9012520909309387,
        -0.9796241521835327
      ],
      "type": "VEC3"
    },
    {
      "bufferView": 3,
      "byteOffset": 480976,
      "componentType": 5126,
      "count": 103,
      "max": [
        0.9968862533569336,
        0.9965653419494629,
        0.9870519042015076,
        1.0
      ],
      "min": [
        -0.9914895296096802,
        -0.9930220246315002,
        -0.9985945224761963,
        1.0
      ],
      "type": "VEC4"
    },
    {
      "bufferView": 1,
      "byteOffset": 240488,
      "componentType": 5126,
      "count": 103,
      "max": [
        0.9980469942092896,
        0.9776189923286438
      ],
      "min": [
        0.0019531199941411614,
        0.001953139901161194
      ],
      "type": "VEC2"
    },
    {
      "bufferView": 0,
      "byteOffset": 699744,
      "componentType": 5125,
      "count": 384,
      "type": "SCALAR"
    },
    {
      "bufferView": 2,
      "byteOffset": 723936,
      "componentType": 5126,
      "count": 103,
      "max": [
        0.022940199822187424,
        0.7687230110168457,
        0.18873000144958496
      ],
      "min": [
        0.0015302300453186035,
        0.7480379939079285,
        0.17112499475479126
      ],
      "type": "VEC3"
    },
    {
      "bufferView": 2,
      "byteOffset": 725172,
      "componentType": 5126,
      "count": 103,
      "max": [
        0.975675106048584,
        0.9860852360725403,
        0.9984360933303833
      ],
      "min": [
        -0.9743432402610779,
        -0.9834193587303162,
        -0.9306754469871521
      ],
      "type": "VEC3"
    },
    {
      "bufferView": 3,
      "byteOffset": 482624,
      "componentType": 5126,
      "count": 103,
      "max": [
        0.9931467175483704,
        0.9848442673683167,
        0.712784469127655,
        1.0
      ],
      "min": [
        -0.9625540375709534,
        -0.8300883769989014,
        -0.969956636428833,
        1.0
      ],
      "type": "VEC4"
    },
    {
      "bufferView": 1,
      "byteOffset": 241312,
      "componentType": 5126,
      "count": 103,
      "max": [
        0.9980469942092896,
        0.9209499955177307
      ],
      "min": [
        0.0019531298894435167,
        0.0019531199941411614
      ],
      "type": "VEC2"
    },
    {
      "bufferView": 0,
      "byteOffset": 701280,
      "componentType": 5125,
      "count": 384,
      "type": "SCALAR"
    },
    {
      "bufferView": 2,
      "byteOffset": 726408,
      "componentType": 5126,
      "count": 773,
      "max": [
        0.06720240414142609,
        0.9999729990959167,
        0.18848299980163574
      ],
      "min": [
        -0.015781700611114502,
        0.7298960089683533,
        -0.12892599403858185
      ],
      "type": "VEC3"
    },
    {
      "bufferView": 2,
      "byteOffset": 735684,
      "componentType": 5126,
      "count": 773,
      "max": [
        0.9980195164680481,
        0.9795785546302795,
        0.9581462144851685
      ],
      "min": [
        -0.9971562623977661,
        -0.9622270464897156,
        -0.9539051651954651
      ],
      "type": "VEC3"
    },
    {
      "bufferView": 3,
      "byteOffset": 484272,
      "componentType": 5126,
      "count": 773,
      "max": [
        0.993604302406311,
        0.9998647570610046,
        0.9958529472351074,
        1.0
      ],
      "min": [
        -0.9969384074211121,
        -0.999822199344635,
        -0.9997705221176147,
        -1.0
      ],
      "type": "VEC4"
    },
    {
      "bufferView": 1,
      "byteOffset": 242136,
      "componentType": 5126,
      "count": 773,
      "max": [
        0.5947499871253967,
        0.5219299793243408
      ],
      "min": [
        0.587399959564209,
        0.44032999873161316
      ],
      "type": "VEC2"
    },
    {
      "bufferView": 0,
      "byteOffset": 702816,
      "componentType": 5125,
      "count": 4614,
      "type": "SCALAR"
    },
    {
      "bufferView": 2,
      "byteOffset": 744960,
      "componentType": 5126,
      "count": 774,
      "max": [
        -0.018319299444556236,
        0.8757500052452087,
        0.19851499795913696
      ],
      "min": [
        -0.3713189959526062,
        0.715865969657898,
        0.019047699868679047
      ],
      "type": "VEC3"
    },
    {
      "bufferView": 2,
      "byteOffset": 754248,
      "componentType": 5126,
      "count": 774,
      "max": [
        0.8445143103599548,
        0.9902878403663635,
        0.9985812306404114
      ],
      "min": [
        -0.9442397356033325,
        -0.9929947853088379,
        -0.9955165386199951
      ],
      "type": "VEC3"
    },
    {
      "bufferView": 3,
      "byteOffset": 496640,
      "componentType": 5126,
      "count": 774,
      "max": [
        0.9911487102508545,
        0.9995067715644836,
        0.9997034072875977,
        1.0
      ],
      "min": [
        -0.9999244213104248,
        -0.9956753849983215,
        -0.9999997615814209,
        -1.0
      ],
      "type": "VEC4"
    },
    {
      "bufferView": 1,
      "byteOffset": 248320,
      "componentType": 5126,
      "count": 774,
      "max": [
        0.5719799995422363,
        0.5219299793243408
      ],
      "min": [
        0.5646199584007263,
        0.44032999873161316
      ],
      "type": "VEC2"
    },
    {
      "bufferView": 0,
      "byteOffset": 721272,
      "componentType": 5125,
      "count": 4602,
      "type": "SCALAR"
    },
    {
      "bufferView": 2,
      "byteOffset": 763536,
      "componentType": 5126,
      "count": 2043,
      "max": [
        0.03309269994497299,
        1.0,
        0.022880200296640396
      ],
      "min": [
        -0.415367990732193,
        0.6629539728164673,
        -0.373306006193161
      ],
      "type": "VEC3"
    },
    {
      "bufferView": 2,
      "byteOffset": 788052,
      "componentType": 5126,
      "count": 2043,
      "max": [
        0.9987625479698181,
        0.9954356551170349,
        0.9986798763275146
      ],
      "min": [
        -0.9989815354347229,
        -0.9985774159431458,
        -0.9988701343536377
      ],
      "type": "VEC3"
    },
    {
      "bufferView": 3,
      "byteOffset": 509024,
      "componentType": 5126,
      "count": 2043,
      "max": [
        0.9998784065246582,
        0.9997977018356323,
        0.9999995231628418,
        1.0
      ],
      "min": [
        -0.9999998211860657,
        -0.9999727606773376,
        -0.9999969601631165,
        -1.0
      ],
      "type": "VEC4"
    },
    {
      "bufferView": 1,
      "byteOffset": 254512,
      "componentType": 5126,
      "count": 2043,
      "max": [
        0.6945300102233887,
        0.8643099665641785
      ],
      "min": [
        0.48144999146461487,
        0.8536399602890015
      ],
      "type": "VEC2"
    },
    {
      "bufferView": 0,
      "byteOffset": 739680,
      "componentType": 5125,
      "count": 12234,
      "type": "SCALAR"
    },
    {
      "bufferView": 2,
      "byteOffset": 812568,
      "componentType": 5126,
      "count": 468,
      "max": [
        0.34370100498199463,
        0.5932329893112183,
        0.2725200057029724
      ],
      "min": [
        0.13750199973583221,
        0.5398529767990112,
        0.17379899322986603
      ],
      "type": "VEC3"
    },
    {
      "bufferView": 2,
      "byteOffset": 818184,
      "componentType": 5126,
      "count": 468,
      "max": [
        0.9628264904022217,
        0.993242084980011,
        0.9862505197525024
      ],
      "min": [
        -0.9702470302581787,
        -0.9991264343261719,
        -0.9831599593162537
      ],
      "type": "VEC3"
    },
    {
      "bufferView": 3,
      "byteOffset": 541712,
      "componentType": 5126,
      "count": 468,
      "max": [
        0.9999561309814453,
        0.9876003265380859,
        0.999695897102356,
        1.0
      ],
      "min": [
        -0.9991980791091919,
        -0.9999867081642151,
        -0.9995285868644714,
        -1.0
      ],
      "type": "VEC4"
    },
    {
      "bufferView": 1,
      "byteOffset": 270856,
      "componentType": 5126,
      "count": 468,
      "max": [
        0.6500899791717529,
        0.33913999795913696
      ],
      "min": [
        0.6080099940299988,
        0.3298899829387665
      ],
      "type": "VEC2"
    },
    {
      "bufferView": 0,
      "byteOffset": 788616,
      "componentType": 5125,
      "count": 2778,
      "type": "SCALAR"
    },
    {
      "bufferView": 2,
      "byteOffset": 823800,
      "componentType": 5126,
      "count": 496,
      "max": [
        0.3451240062713623,
        0.5943899750709534,
        0.2759290039539337
      ],
      "min": [
        0.13773399591445923,
        0.5406180024147034,
        0.17372100055217743
      ],
      "type": "VEC3"
    },
    {
      "bufferView": 2,
      "byteOffset": 829752,
      "componentType": 5126,
      "count": 496,
      "max": [
        0.9639102816581726,
        0.996762752532959,
        0.9905582666397095
      ],
      "min": [
        -0.971641480922699,
        -0.999894380569458,
        -0.997877836227417
      ],
      "type": "VEC3"
    },
    {
      "bufferView": 3,
      "byteOffset": 549200,
      "componentType": 5126,
      "count": 496,
      "max": [
        0.9963640570640564,
        0.9390878677368164,
        0.9986769556999207,
        1.0
      ],
      "min": [
        -0.999808669090271,
        -0.992309033870697,
        -0.9999959468841553,
        -1.0
      ],
      "type": "VEC4"
    },
    {
      "bufferView": 1,
      "byteOffset": 274600,
      "componentType": 5126,
      "count": 496,
      "max": [
        0.6405999660491943,
        0.33173999190330505
      ],
      "min": [
        0.5985199809074402,
        0.32249000668525696
      ],
      "type": "VEC2"
    },
    {
      "bufferView": 0,
      "byteOffset": 799728,
      "componentType": 5125,
      "count": 2946,
      "type": "SCALAR"
    },
    {
      "bufferView": 2,
      "byteOffset": 835704,
      "componentType": 5126,
      "count": 2432,
      "max": [
        0.4227519929409027,
        -0.3271099925041199,
        0.4967989921569824
      ],
      "min": [
        -0.35149601101875305,
        -0.8272609710693359,
        0.21491700410842896
      ],
      "type": "VEC3"
    },
    {
      "bufferView": 2,
      "byteOffset": 864888,
      "componentType": 5126,
      "count": 2432,
      "max": [
        0.9988734126091003,
        0.999759316444397,
        0.9999483823776245
      ],
      "min": [
        -0.998629629611969,
        -0.9954550266265869,
        -0.9999663829803467
      ],
      "type": "VEC3"
    },
    {
      "bufferView": 3,
      "byteOffset": 557136,
      "componentType": 5126,
      "count": 2432,
      "max": [
        0.9999683499336243,
        0.9999998807907104,
        0.9999982714653015,
        1.0
      ],
      "min": [
        -1.0,
        -1.0,
        -0.9975355267524719,
        -1.0
      ],
      "type": "VEC4"
    },
    {
      "bufferView": 1,
      "byteOffset": 278568,
      "componentType": 5126,
      "count": 2432,
      "max": [
        0.8286299705505371,
        0.08529999852180481
      ],
      "min": [
        0.7034599781036377,
        0.006819999776780605
      ],
      "type": "VEC2"
    },
    {
      "bufferView": 0,
      "byteOffset": 811512,
      "componentType": 5125,
      "count": 14520,
      "type": "SCALAR"
    },
    {
      "bufferView": 2,
      "byteOffset": 894072,
      "componentType": 5126,
      "count": 615,
      "max": [
        0.7407559752464294,
        -0.7802900075912476,
        -0.03967539966106415
      ],
      "min": [
        0.5692999958992004,
        -0.8623679876327515,
        -0.1598449945449829
      ],
      "type": "VEC3"
    },
    {
      "bufferView": 2,
      "byteOffset": 901452,
      "componentType": 5126,
      "count": 615,
      "max": [
        0.988140881061554,
        0.9984380006790161,
        0.9971162676811218
      ],
      "min": [
        -0.9750052690505981,
        -0.9986522197723389,
        -0.9971371293067932
      ],
      "type": "VEC3"
    },
    {
      "bufferView": 3,
      "byteOffset": 596048,
      "componentType": 5126,
      "count": 615,
      "max": [
        0.9968927502632141,
        0.9999963641166687,
        0.9996031522750854,
        1.0
      ],
      "min": [
        -0.9996014833450317,
        -0.9999409914016724,
        -0.9972667098045349,
        -1.0
      ],
      "type": "VEC4"
    },
    {
      "bufferView": 1,
      "byteOffset": 298024,
      "componentType": 5126,
      "count": 615,
      "max": [
        0.9931699633598328,
        0.5577899813652039
      ],
      "min": [
        0.9737299680709839,
        0.5185799598693848
      ],
      "type": "VEC2"
    },
    {
      "bufferView": 0,
      "byteOffset": 869592,
      "componentType": 5125,
      "count": 3636,
      "type": "SCALAR"
    },
    {
      "bufferView": 2,
      "byteOffset": 908832,
      "componentType": 5126,
      "count": 4505,
      "max": [
        0.7363560199737549,
        0.8467490077018738,
        0.07891330122947693
      ],
      "min": [
        0.3175489902496338,
        -0.7947570085525513,
        -0.2706559896469116
      ],
      "type": "VEC3"
    },
    {
      "bufferView": 2,
      "byteOffset": 962892,
      "componentType": 5126,
      "count": 4505,
      "max": [
        0.999751091003418,
        0.9909506440162659,
        0.999197244644165
      ],
      "min": [
        -0.999720573425293,
        -0.9924580454826355,
        -0.9995890855789185
      ],
      "type": "VEC3"
    },
    {
      "bufferView": 3,
      "byteOffset": 605888,
      "componentType": 5126,
      "count": 4505,
      "max": [
        0.9999862909317017,
        1.0,
        0.987870454788208,
        1.0
      ],
      "min": [
        -1.0,
        -0.999988317489624,
        -0.9999549984931946,
        -1.0
      ],
      "type": "VEC4"
    },
    {
      "bufferView": 1,
      "byteOffset": 302944,
      "componentType": 5126,
      "count": 4505,
      "max": [
        0.934249997138977,
        0.5491499900817871
      ],
      "min": [
        0.6610400080680847,
        0.47968998551368713
      ],
      "type": "VEC2"
    },
    {
      "bufferView": 0,
      "byteOffset": 884136,
      "componentType": 5125,
      "count": 26904,
      "type": "SCALAR"
    },
    {
      "bufferView": 2,
      "byteOffset": 1016952,
      "componentType": 5126,
      "count": 5100,
      "max": [
        0.7686970233917236,
        0.8509389758110046,
        -0.07098600268363953
      ],
      "min": [
        0.30061298608779907,
        -0.8028199672698975,
        -0.34332600235939026
      ],
      "type": "VEC3"
    },
    {
      "bufferView": 2,
      "byteOffset": 1078152,
      "componentType": 5126,
      "count": 5100,
      "max": [
        0.9996638298034668,
        0.9936345815658569,
        0.9999915361404419
      ],
      "min": [
        -0.9996957778930664,
        -0.9932871460914612,
        -0.9991546869277954
      ],
      "type": "VEC3"
    },
    {
      "bufferView": 3,
      "byteOffset": 677968,
      "componentType": 5126,
      "count": 5100,
      "max": [
        0.9999973773956299,
        0.9999997019767761,
        0.9999276995658875,
        1.0
      ],
      "min": [
        -0.9977659583091736,
        -0.9999986886978149,
        -0.9999926686286926,
        -1.0
      ],
      "type": "VEC4"
    },
    {
      "bufferView": 1,
      "byteOffset": 338984,
      "componentType": 5126,
      "count": 5100,
      "max": [
        0.934249997138977,
        0.6226300001144409
      ],
      "min": [
        0.6610400080680847,
        0.549809992313385
      ],
      "type": "VEC2"
    },
    {
      "bufferView": 0,
      "byteOffset": 991752,
      "componentType": 5125,
      "count": 30492,
      "type": "SCALAR"
    },
    {
      "bufferView": 2,
      "byteOffset": 1139352,
      "componentType": 5126,
      "count": 5058,
      "max": [
        -0.4247710108757019,
        0.7332980036735535,
        0.5354030132293701
      ],
      "min": [
        -0.7686970233917236,
        -0.9283040165901184,
        -0.05938680097460747
      ],
      "type": "VEC3"
    },
    {
      "bufferView": 2,
      "byteOffset": 1200048,
      "componentType": 5126,
      "count": 5058,
      "max": [
        0.9996753931045532,
        0.9848847389221191,
        0.9999936819076538
      ],
      "min": [
        -0.9994109869003296,
        -0.9993988275527954,
        -0.9994616508483887
      ],
      "type": "VEC3"
    },
    {
      "bufferView": 3,
      "byteOffset": 759568,
      "componentType": 5126,
      "count": 5058,
      "max": [
        1.0,
        0.9999962449073792,
        0.9999082088470459,
        1.0
      ],
      "min": [
        -0.9999999403953552,
        -0.9960212111473083,
        -0.9999986290931702,
        -1.0
      ],
      "type": "VEC4"
    },
    {
      "bufferView": 1,
      "byteOffset": 379784,
      "componentType": 5126,
      "count": 5058,
      "max": [
        0.3358500003814697,
        0.6212700009346008
      ],
      "min": [
        0.06396999955177307,
        0.5446999669075012
      ],
      "type": "VEC2"
    },
    {
      "bufferView": 0,
      "byteOffset": 1113720,
      "componentType": 5125,
      "count": 29562,
      "type": "SCALAR"
    },
    {
      "bufferView": 2,
      "byteOffset": 1260744,
      "componentType": 5126,
      "count": 4630,
      "max": [
        -0.40246400237083435,
        0.7337170243263245,
        0.5354269742965698
      ],
      "min": [
        -0.7204819917678833,
        -0.9222270250320435,
        0.07547289878129959
      ],
      "type": "VEC3"
    },
    {
      "bufferView": 2,
      "byteOffset": 1316304,
      "componentType": 5126,
      "count": 4630,
      "max": [
        0.9997639656066895,
        0.9784397482872009,
        0.999768853187561
      ],
      "min": [
        -0.9999903440475464,
        -0.9977244138717651,
        -0.9997659921646118
      ],
      "type": "VEC3"
    },
    {
      "bufferView": 3,
      "byteOffset": 840496,
      "componentType": 5126,
      "count": 4630,
      "max": [
        0.9994342923164368,
        0.9999997615814209,
        0.9997366070747375,
        1.0
      ],
      "min": [
        -1.0,
        -0.9999993443489075,
        -0.9999327659606934,
        -1.0
      ],
      "type": "VEC4"
    },
    {
      "bufferView": 1,
      "byteOffset": 420248,
      "componentType": 5126,
      "count": 4630,
      "max": [
        0.3358500003814697,
        0.5406000018119812
      ],
      "min": [
        0.06396999955177307,
        0.4798799753189087
      ],
      "type": "VEC2"
    },
    {
      "bufferView": 0,
      "byteOffset": 1231968,
      "componentType": 5125,
      "count": 26406,
      "type": "SCALAR"
    },
    {
      "bufferView": 2,
      "byteOffset": 1371864,
      "componentType": 5126,
      "count": 633,
      "max": [
        -0.5693820118904114,
        -0.8726339936256409,
        0.5646129846572876
      ],
      "min": [
        -0.6792640089988708,
        -1.0,
        0.400301992893219
      ],
      "type": "VEC3"
    },
    {
      "bufferView": 2,
      "byteOffset": 1379460,
      "componentType": 5126,
      "count": 633,
      "max": [
        0.9999803304672241,
        0.9993147850036621,
        0.9964190125465393
      ],
      "min": [
        -0.9995980262756348,
        -0.9936372637748718,
        -0.9997882843017578
      ],
      "type": "VEC3"
    },
    {
      "bufferView": 3,
      "byteOffset": 914576,
      "componentType": 5126,
      "count": 633,
      "max": [
        0.9993547201156616,
        0.9999998807907104,
        0.9998836517333984,
        1.0
      ],
      "min": [
        -0.9979422688484192,
        -0.9977502822875977,
        -0.999997615814209,
        -1.0
      ],
      "type": "VEC4"
    },
    {
      "bufferView": 1,
      "byteOffset": 457288,
      "componentType": 5126,
      "count": 633,
      "max": [
        0.028279999271035194,
        0.5870000123977661
      ],
      "min": [
        0.006819999776780605,
        0.5446999669075012
      ],
      "type": "VEC2"
    },
    {
      "bufferView": 0,
      "byteOffset": 1337592,
      "componentType": 5125,
      "count": 3756,
      "type": "SCALAR"
    },
    {
      "bufferView": 2,
      "byteOffset": 1387056,
      "componentType": 5126,
      "count": 659,
      "max": [
        -0.4738689959049225,
        -0.8636209964752197,
        0.5639839768409729
      ],
      "min": [
        -0.5927609801292419,
        -0.9853969812393188,
        0.4000740051269531
      ],
      "type": "VEC3"
    },
    {
      "bufferView": 2,
      "byteOffset": 1394964,
      "componentType": 5126,
      "count": 659,
      "max": [
        0.9899542927742004,
        0.9976788759231567,
        0.998691976070404
      ],
      "min": [
        -0.9944756031036377,
        -0.9361748099327087,
        -0.9991453886032104
      ],
      "type": "VEC3"
    },
    {
      "bufferView": 3,
      "byteOffset": 924704,
      "componentType": 5126,
      "count": 659,
      "max": [
        0.9935484528541565,
        0.9998691082000732,
        0.9980978965759277,
        1.0
      ],
      "min": [
        -0.9999902248382568,
        -0.9999842643737793,
        -0.9516915082931519,
        -1.0
      ],
      "type": "VEC4"
    },
    {
      "bufferView": 1,
      "byteOffset": 462352,
      "componentType": 5126,
      "count": 659,
      "max": [
        0.028279999271035194,
        0.5358799695968628
      ],
      "min": [
        0.006819999776780605,
        0.4935799837112427
      ],
      "type": "VEC2"
    },
    {
      "bufferView": 0,
      "byteOffset": 1352616,
      "componentType": 5125,
      "count": 3804,
      "type": "SCALAR"
    },
    {
      "bufferView": 2,
      "byteOffset": 1402872,
      "componentType": 5126,
      "count": 13094,
      "max": [
        0.48425599932670593,
        0.9125739932060242,
        0.49229300022125244
      ],
      "min": [
        -0.5282689929008484,
        -0.8192920088768005,
        -0.1655929982662201
      ],
      "type": "VEC3"
    },
    {
      "bufferView": 2,
      "byteOffset": 1560000,
      "componentType": 5126,
      "count": 13094,
      "max": [
        0.9992964267730713,
        0.999873161315918,
        0.9999412298202515
      ],
      "min": [
        -0.9993870258331299,
        -0.9998117685317993,
        -0.9999363422393799
      ],
      "type": "VEC3"
    },
    {
      "bufferView": 3,
      "byteOffset": 935248,
      "componentType": 5126,
      "count": 13094,
      "max": [
        1.0,
        0.9999801516532898,
        0.9999976754188538,
        1.0
      ],
      "min": [
        -0.9999997019767761,
        -1.0,
        -0.9999924898147583,
        -1.0
      ],
      "type": "VEC4"
    },
    {
      "bufferView": 1,
      "byteOffset": 467624,
      "componentType": 5126,
      "count": 13094,
      "max": [
        0.7082499861717224,
        0.43664997816085815
      ],
      "min": [
        0.48982998728752136,
        0.11700000613927841
      ],
      "type": "VEC2"
    },
    {
      "bufferView": 0,
      "byteOffset": 1367832,
      "componentType": 5125,
      "count": 77994,
      "type": "SCALAR"
    },
    {
      "bufferView": 2,
      "byteOffset": 1717128,
      "componentType": 5126,
      "count": 12650,
      "max": [
        0.46266600489616394,
        0.942933976650238,
        0.22141200304031372
      ],
      "min": [
        -0.6015769839286804,
        -0.6935830116271973,
        -0.3811950087547302
      ],
      "type": "VEC3"
    },
    {
      "bufferView": 2,
      "byteOffset": 1868928,
      "componentType": 5126,
      "count": 12650,
      "max": [
        0.9998717308044434,
        0.999964714050293,
        0.9999338388442993
      ],
      "min": [
        -0.9999690055847168,
        -0.9999409914016724,
        -0.9999134540557861
      ],
      "type": "VEC3"
    },
    {
      "bufferView": 3,
      "byteOffset": 1144752,
      "componentType": 5126,
      "count": 12650,
      "max": [
        1.0,
        0.9999998211860657,
        0.9999997615814209,
        1.0
      ],
      "min": [
        -0.9999868869781494,
        -0.9999980926513672,
        -0.9999734163284302,
        -1.0
      ],
      "type": "VEC4"
    },
    {
      "bufferView": 1,
      "byteOffset": 572376,
      "componentType": 5126,
      "count": 12650,
      "max": [
        0.423009991645813,
        0.45128998160362244
      ],
      "min": [
        0.1999099999666214,
        0.11284999549388885
      ],
      "type": "VEC2"
    },
    {
      "bufferView": 0,
      "byteOffset": 1679808,
      "componentType": 5125,
      "count": 75522,
      "type": "SCALAR"
    },
    {
      "bufferView": 4,
      "componentType": 5126,
      "count": 195,
      "max": [
        10.416666984558105
      ],
      "min": [
        0.0416666679084301
      ],
      "type": "SCALAR"
    },
    {
      "bufferView": 5,
      "componentType": 5126,
      "count": 195,
      "max": [
        8.146034247147327e-08,
        1.0,
        7.016038949814174e-08,
        1.0
      ],
      "min": [
        -4.0270343504289485e-08,
        -0.8612827658653259,
        -8.146034247147327e-08,
        -0.494355171918869
      ],
      "type": "VEC4"
    },
    {
      "bufferView": 4,
      "byteOffset": 780,
      "componentType": 5126,
      "count": 195,
      "max": [
        10.416666984558105
      ],
      "min": [
        0.0416666679084301
      ],
      "type": "SCALAR"
    },
    {
      "bufferView": 5,
      "byteOffset": 3120,
      "componentType": 5126,
      "count": 195,
      "max": [
        8.146034247147327e-08,
        1.0,
        7.016038949814174e-08,
        1.0
      ],
      "min": [
        -4.0270343504289485e-08,
        -0.8612827658653259,
        -8.146034247147327e-08,
        -0.494355171918869
      ],
      "type": "VEC4"
    },
    {
      "bufferView": 4,
      "byteOffset": 1560,
      "componentType": 5126,
      "count": 195,
      "max": [
        10.416666984558105
      ],
      "min": [
        0.0416666679084301
      ],
      "type": "SCALAR"
    },
    {
      "bufferView": 5,
      "byteOffset": 6240,
      "componentType": 5126,
      "count": 195,
      "max": [
        8.146034247147327e-08,
        1.0,
        7.016038949814174e-08,
        1.0
      ],
      "min": [
        -4.0270343504289485e-08,
        -0.8612827658653259,
        -8.146034247147327e-08,
        -0.494355171918869
      ],
      "type": "VEC4"
    },
    {
      "bufferView": 4,
      "byteOffset": 2340,
      "componentType": 5126,
      "count": 195,
      "max": [
        10.416666984558105
      ],
      "min": [
        0.0416666679084301
      ],
      "type": "SCALAR"
    },
    {
      "bufferView": 5,
      "byteOffset": 9360,
      "componentType": 5126,
      "count": 195,
      "max": [
        8.146034247147327e-08,
        1.0,
        7.016038949814174e-08,
        1.0
      ],
      "min": [
        -4.0270343504289485e-08,
        -0.8612827658653259,
        -8.146034247147327e-08,
        -0.494355171918869
      ],
      "type": "VEC4"
    },
    {
      "bufferView": 4,
      "byteOffset": 3120,
      "componentType": 5126,
      "count": 195,
      "max": [
        10.416666984558105
      ],
      "min": [
        0.0416666679084301
      ],
      "type": "SCALAR"
    },
    {
      "bufferView": 5,
      "byteOffset": 12480,
      "componentType": 5126,
      "count": 195,
      "max": [
        8.146034247147327e-08,
        1.0,
        7.016038949814174e-08,
        1.0
      ],
      "min": [
        -4.0270343504289485e-08,
        -0.8612827658653259,
        -8.146034247147327e-08,
        -0.494355171918869
      ],
      "type": "VEC4"
    },
    {
      "bufferView": 4,
      "byteOffset": 3900,
      "componentType": 5126,
      "count": 195,
      "max": [
        10.416666984558105
      ],
      "min": [
        0.0416666679084301
      ],
      "type": "SCALAR"
    },
    {
      "bufferView": 5,
      "byteOffset": 15600,
      "componentType": 5126,
      "count": 195,
      "max": [
        8.146034247147327e-08,
        1.0,
        7.016038949814174e-08,
        1.0
      ],
      "min": [
        -4.0270343504289485e-08,
        -0.8612827658653259,
        -8.146034247147327e-08,
        -0.494355171918869
      ],
      "type": "VEC4"
    },
    {
      "bufferView": 4,
      "byteOffset": 4680,
      "componentType": 5126,
      "count": 195,
      "max": [
        10.416666984558105
      ],
      "min": [
        0.0416666679084301
      ],
      "type": "SCALAR"
    },
    {
      "bufferView": 5,
      "byteOffset": 18720,
      "componentType": 5126,
      "count": 195,
      "max": [
        8.146034247147327e-08,
        1.0,
        7.016038949814174e-08,
        1.0
      ],
      "min": [
        -4.0270343504289485e-08,
        -0.8612827658653259,
        -8.146034247147327e-08,
        -0.494355171918869
      ],
      "type": "VEC4"
    },
    {
      "bufferView": 4,
      "byteOffset": 5460,
      "componentType": 5126,
      "count": 195,
      "max": [
        10.416666984558105
      ],
      "min": [
        0.0416666679084301
      ],
      "type": "SCALAR"
    },
    {
      "bufferView": 5,
      "byteOffset": 21840,
      "componentType": 5126,
      "count": 195,
      "max": [
        8.146034247147327e-08,
        1.0,
        7.016038949814174e-08,
        1.0
      ],
      "min": [
        -4.0270343504289485e-08,
        -0.8612827658653259,
        -8.146034247147327e-08,
        -0.494355171918869
      ],
      "type": "VEC4"
    },
    {
      "bufferView": 4,
      "byteOffset": 6240,
      "componentType": 5126,
      "count": 195,
      "max": [
        10.416666984558105
      ],
      "min": [
        0.0416666679084301
      ],
      "type": "SCALAR"
    },
    {
      "bufferView": 5,
      "byteOffset": 24960,
      "componentType": 5126,
      "count": 195,
      "max": [
        8.146034247147327e-08,
        1.0,
        7.016038949814174e-08,
        1.0
      ],
      "min": [
        -4.0270343504289485e-08,
        -0.8612827658653259,
        -8.146034247147327e-08,
        -0.494355171918869
      ],
      "type": "VEC4"
    },
    {
      "bufferView": 4,
      "byteOffset": 7020,
      "componentType": 5126,
      "count": 195,
      "max": [
        10.416666984558105
      ],
      "min": [
        0.0416666679084301
      ],
      "type": "SCALAR"
    },
    {
      "bufferView": 5,
      "byteOffset": 28080,
      "componentType": 5126,
      "count": 195,
      "max": [
        8.146034247147327e-08,
        1.0,
        7.016038949814174e-08,
        1.0
      ],
      "min": [
        -4.0270343504289485e-08,
        -0.8612827658653259,
        -8.146034247147327e-08,
        -0.494355171918869
      ],
      "type": "VEC4"
    },
    {
      "bufferView": 4,
      "byteOffset": 7800,
      "componentType": 5126,
      "count": 195,
      "max": [
        10.416666984558105
      ],
      "min": [
        0.0416666679084301
      ],
      "type": "SCALAR"
    },
    {
      "bufferView": 5,
      "byteOffset": 31200,
      "componentType": 5126,
      "count": 195,
      "max": [
        8.146034247147327e-08,
        1.0,
        7.016038949814174e-08,
        1.0
      ],
      "min": [
        -4.0270343504289485e-08,
        -0.8612827658653259,
        -8.146034247147327e-08,
        -0.494355171918869
      ],
      "type": "VEC4"
    },
    {
      "bufferView": 4,
      "byteOffset": 8580,
      "componentType": 5126,
      "count": 195,
      "max": [
        10.416666984558105
      ],
      "min": [
        0.0416666679084301
      ],
      "type": "SCALAR"
    },
    {
      "bufferView": 5,
      "byteOffset": 34320,
      "componentType": 5126,
      "count": 195,
      "max": [
        8.146034247147327e-08,
        1.0,
        7.016038949814174e-08,
        1.0
      ],
      "min": [
        -4.0270343504289485e-08,
        -0.8612827658653259,
        -8.146034247147327e-08,
        -0.494355171918869
      ],
      "type": "VEC4"
    },
    {
      "bufferView": 4,
      "byteOffset": 9360,
      "componentType": 5126,
      "count": 195,
      "max": [
        10.416666984558105
      ],
      "min": [
        0.0416666679084301
      ],
      "type": "SCALAR"
    },
    {
      "bufferView": 5,
      "byteOffset": 37440,
      "componentType": 5126,
      "count": 195,
      "max": [
        8.146034247147327e-08,
        1.0,
        7.016038949814174e-08,
        1.0
      ],
      "min": [
        -4.0270343504289485e-08,
        -0.8612827658653259,
        -8.146034247147327e-08,
        -0.494355171918869
      ],
      "type": "VEC4"
    },
    {
      "bufferView": 4,
      "byteOffset": 10140,
      "componentType": 5126,
      "count": 195,
      "max": [
        10.416666984558105
      ],
      "min": [
        0.0416666679084301
      ],
      "type": "SCALAR"
    },
    {
      "bufferView": 5,
      "byteOffset": 40560,
      "componentType": 5126,
      "count": 195,
      "max": [
        8.146034247147327e-08,
        1.0,
        7.016038949814174e-08,
        1.0
      ],
      "min": [
        -4.0270343504289485e-08,
        -0.8612827658653259,
        -8.146034247147327e-08,
        -0.494355171918869
      ],
      "type": "VEC4"
    },
    {
      "bufferView": 4,
      "byteOffset": 10920,
      "componentType": 5126,
      "count": 195,
      "max": [
        10.416666984558105
      ],
      "min": [
        0.0416666679084301
      ],
      "type": "SCALAR"
    },
    {
      "bufferView": 5,
      "byteOffset": 43680,
      "componentType": 5126,
      "count": 195,
      "max": [
        8.146034247147327e-08,
        1.0,
        7.016038949814174e-08,
        1.0
      ],
      "min": [
        -4.0270343504289485e-08,
        -0.8612827658653259,
        -8.146034247147327e-08,
        -0.494355171918869
      ],
      "type": "VEC4"
    },
    {
      "bufferView": 4,
      "byteOffset": 11700,
      "componentType": 5126,
      "count": 195,
      "max": [
        10.416666984558105
      ],
      "min": [
        0.0416666679084301
      ],
      "type": "SCALAR"
    },
    {
      "bufferView": 5,
      "byteOffset": 46800,
      "componentType": 5126,
      "count": 195,
      "max": [
        8.146034247147327e-08,
        1.0,
        7.016038949814174e-08,
        1.0
      ],
      "min": [
        -4.0270343504289485e-08,
        -0.8612827658653259,
        -8.146034247147327e-08,
        -0.494355171918869
      ],
      "type": "VEC4"
    },
    {
      "bufferView": 4,
      "byteOffset": 12480,
      "componentType": 5126,
      "count": 195,
      "max": [
        10.416666984558105
      ],
      "min": [
        0.0416666679084301
      ],
      "type": "SCALAR"
    },
    {
      "bufferView": 5,
      "byteOffset": 49920,
      "componentType": 5126,
      "count": 195,
      "max": [
        8.146034247147327e-08,
        1.0,
        7.016038949814174e-08,
        1.0
      ],
      "min": [
        -4.0270343504289485e-08,
        -0.8612827658653259,
        -8.146034247147327e-08,
        -0.494355171918869
      ],
      "type": "VEC4"
    },
    {
      "bufferView": 4,
      "byteOffset": 13260,
      "componentType": 5126,
      "count": 195,
      "max": [
        10.416666984558105
      ],
      "min": [
        0.0416666679084301
      ],
      "type": "SCALAR"
    },
    {
      "bufferView": 5,
      "byteOffset": 53040,
      "componentType": 5126,
      "count": 195,
      "max": [
        8.146034247147327e-08,
        1.0,
        7.016038949814174e-08,
        1.0
      ],
      "min": [
        -4.0270343504289485e-08,
        -0.8612827658653259,
        -8.146034247147327e-08,
        -0.494355171918869
      ],
      "type": "VEC4"
    },
    {
      "bufferView": 4,
      "byteOffset": 14040,
      "componentType": 5126,
      "count": 195,
      "max": [
        10.416666984558105
      ],
      "min": [
        0.0416666679084301
      ],
      "type": "SCALAR"
    },
    {
      "bufferView": 5,
      "byteOffset": 56160,
      "componentType": 5126,
      "count": 195,
      "max": [
        8.146034247147327e-08,
        1.0,
        7.016038949814174e-08,
        1.0
      ],
      "min": [
        -4.0270343504289485e-08,
        -0.8612827658653259,
        -8.146034247147327e-08,
        -0.494355171918869
      ],
      "type": "VEC4"
    },
    {
      "bufferView": 4,
      "byteOffset": 14820,
      "componentType": 5126,
      "count": 195,
      "max": [
        10.416666984558105
      ],
      "min": [
        0.0416666679084301
      ],
      "type": "SCALAR"
    },
    {
      "bufferView": 5,
      "byteOffset": 59280,
      "componentType": 5126,
      "count": 195,
      "max": [
        8.146034247147327e-08,
        1.0,
        7.016038949814174e-08,
        1.0
      ],
      "min": [
        -4.0270343504289485e-08,
        -0.8612827658653259,
        -8.146034247147327e-08,
        -0.494355171918869
      ],
      "type": "VEC4"
    },
    {
      "bufferView": 4,
      "byteOffset": 15600,
      "componentType": 5126,
      "count": 195,
      "max": [
        10.416666984558105
      ],
      "min": [
        0.0416666679084301
      ],
      "type": "SCALAR"
    },
    {
      "bufferView": 5,
      "byteOffset": 62400,
      "componentType": 5126,
      "count": 195,
      "max": [
        8.146034247147327e-08,
        1.0,
        7.016038949814174e-08,
        1.0
      ],
      "min": [
        -4.0270343504289485e-08,
        -0.8612827658653259,
        -8.146034247147327e-08,
        -0.494355171918869
      ],
      "type": "VEC4"
    },
    {
      "bufferView": 4,
      "byteOffset": 16380,
      "componentType": 5126,
      "count": 195,
      "max": [
        10.416666984558105
      ],
      "min": [
        0.0416666679084301
      ],
      "type": "SCALAR"
    },
    {
      "bufferView": 5,
      "byteOffset": 65520,
      "componentType": 5126,
      "count": 195,
      "max": [
        8.146034247147327e-08,
        1.0,
        7.016038949814174e-08,
        1.0
      ],
      "min": [
        -4.0270343504289485e-08,
        -0.8612827658653259,
        -8.146034247147327e-08,
        -0.494355171918869
      ],
      "type": "VEC4"
    },
    {
      "bufferView": 4,
      "byteOffset": 17160,
      "componentType": 5126,
      "count": 195,
      "max": [
        10.416666984558105
      ],
      "min": [
        0.0416666679084301
      ],
      "type": "SCALAR"
    },
    {
      "bufferView": 5,
      "byteOffset": 68640,
      "componentType": 5126,
      "count": 195,
      "max": [
        8.146034247147327e-08,
        1.0,
        7.016038949814174e-08,
        1.0
      ],
      "min": [
        -4.0270343504289485e-08,
        -0.8612827658653259,
        -8.146034247147327e-08,
        -0.494355171918869
      ],
      "type": "VEC4"
    },
    {
      "bufferView": 4,
      "byteOffset": 17940,
      "componentType": 5126,
      "count": 195,
      "max": [
        10.416666984558105
      ],
      "min": [
        0.0416666679084301
      ],
      "type": "SCALAR"
    },
    {
      "bufferView": 5,
      "byteOffset": 71760,
      "componentType": 5126,
      "count": 195,
      "max": [
        8.146034247147327e-08,
        1.0,
        7.016038949814174e-08,
        1.0
      ],
      "min": [
        -4.0270343504289485e-08,
        -0.8612827658653259,
        -8.146034247147327e-08,
        -0.494355171918869
      ],
      "type": "VEC4"
    }
  ],
  "animations": [
    {
      "channels": [
        {
          "sampler": 0,
          "target": {
            "node": 4,
            "path": "rotation"
          }
        },
        {
          "sampler": 1,
          "target": {
            "node": 6,
            "path": "rotation"
          }
        },
        {
          "sampler": 2,
          "target": {
            "node": 8,
            "path": "rotation"
          }
        },
        {
          "sampler": 3,
          "target": {
            "node": 10,
            "path": "rotation"
          }
        },
        {
          "sampler": 4,
          "target": {
            "node": 12,
            "path": "rotation"
          }
        },
        {
          "sampler": 5,
          "target": {
            "node": 14,
            "path": "rotation"
          }
        },
        {
          "sampler": 6,
          "target": {
            "node": 16,
            "path": "rotation"
          }
        },
        {
          "sampler": 7,
          "target": {
            "node": 18,
            "path": "rotation"
          }
        },
        {
          "sampler": 8,
          "target": {
            "node": 20,
            "path": "rotation"
          }
        },
        {
          "sampler": 9,
          "target": {
            "node": 22,
            "path": "rotation"
          }
        },
        {
          "sampler": 10,
          "target": {
            "node": 24,
            "path": "rotation"
          }
        },
        {
          "sampler": 11,
          "target": {
            "node": 26,
            "path": "rotation"
          }
        },
        {
          "sampler": 12,
          "target": {
            "node": 28,
            "path": "rotation"
          }
        },
        {
          "sampler": 13,
          "target": {
            "node": 30,
            "path": "rotation"
          }
        },
        {
          "sampler": 14,
          "target": {
            "node": 32,
            "path": "rotation"
          }
        },
        {
          "sampler": 15,
          "target": {
            "node": 34,
            "path": "rotation"
          }
        },
        {
          "sampler": 16,
          "target": {
            "node": 36,
            "path": "rotation"
          }
        },
        {
          "sampler": 17,
          "target": {
            "node": 38,
            "path": "rotation"
          }
        },
        {
          "sampler": 18,
          "target": {
            "node": 40,
            "path": "rotation"
          }
        },
        {
          "sampler": 19,
          "target": {
            "node": 42,
            "path": "rotation"
          }
        },
        {
          "sampler": 20,
          "target": {
            "node": 44,
            "path": "rotation"
          }
        },
        {
          "sampler": 21,
          "target": {
            "node": 46,
            "path": "rotation"
          }
        },
        {
          "sampler": 22,
          "target": {
            "node": 48,
            "path": "rotation"
          }
        },
        {
          "sampler": 23,
          "target": {
            "node": 50,
            "path": "rotation"
          }
        }
      ],
      "name": "Scene",
      "samplers": [
        {
          "input": 120,
          "interpolation": "LINEAR",
          "output": 121
        },
        {
          "input": 122,
          "interpolation": "LINEAR",
          "output": 123
        },
        {
          "input": 124,
          "interpolation": "LINEAR",
          "output": 125
        },
        {
          "input": 126,
          "interpolation": "LINEAR",
          "output": 127
        },
        {
          "input": 128,
          "interpolation": "LINEAR",
          "output": 129
        },
        {
          "input": 130,
          "interpolation": "LINEAR",
          "output": 131
        },
        {
          "input": 132,
          "interpolation": "LINEAR",
          "output": 133
        },
        {
          "input": 134,
          "interpolation": "LINEAR",
          "output": 135
        },
        {
          "input": 136,
          "interpolation": "LINEAR",
          "output": 137
        },
        {
          "input": 138,
          "interpolation": "LINEAR",
          "output": 139
        },
        {
          "input": 140,
          "interpolation": "LINEAR",
          "output": 141
        },
        {
          "input": 142,
          "interpolation": "LINEAR",
          "output": 143
        },
        {
          "input": 144,
          "interpolation": "LINEAR",
          "output": 145
        },
        {
          "input": 146,
          "interpolation": "LINEAR",
          "output": 147
        },
        {
          "input": 148,
          "interpolation": "LINEAR",
          "output": 149
        },
        {
          "input": 150,
          "interpolation": "LINEAR",
          "output": 151
        },
        {
          "input": 152,
          "interpolation": "LINEAR",
          "output": 153
        },
        {
          "input": 154,
          "interpolation": "LINEAR",
          "output": 155
        },
        {
          "input": 156,
          "interpolation": "LINEAR",
          "output": 157
        },
        {
          "input": 158,
          "interpolation": "LINEAR",
          "output": 159
        },
        {
          "input": 160,
          "interpolation": "LINEAR",
          "output": 161
        },
        {
          "input": 162,
          "interpolation": "LINEAR",
          "output": 163
        },
        {
          "input": 164,
          "interpolation": "LINEAR",
          "output": 165
        },
        {
          "input": 166,
          "interpolation": "LINEAR",
          "output": 167
        }
      ]
    }
  ],
  "asset": {
    "extras": {
      "author": "macriciox (https://sketchfab.com/macriciox)",
      "license": "CC-BY-4.0 (http://creativecommons.org/licenses/by/4.0/)",
      "source": "https://sketchfab.com/3d-models/gray-hoodie-e8915554fc484a0caf11ae021ac11e55",
      "title": "Gray Hoodie"
    },
    "generator": "Sketchfab-12.68.0",
    "version": "2.0"
  },
  "bufferViews": [
    {
      "buffer": 0,
      "byteLength": 1981896,
      "name": "floatBufferViews",
      "target": 34963
    },
    {
      "buffer": 0,
      "byteLength": 673576,
      "byteOffset": 1981896,
      "byteStride": 8,
      "name": "floatBufferViews",
      "target": 34962
    },
    {
      "buffer": 0,
      "byteLength": 2020728,
      "byteOffset": 2655472,
      "byteStride": 12,
      "name": "floatBufferViews",
      "target": 34962
    },
    {
      "buffer": 0,
      "byteLength": 1347152,
      "byteOffset": 4676200,
      "byteStride": 16,
      "name": "floatBufferViews",
      "target": 34962
    },
    {
      "buffer": 0,
      "byteLength": 18720,
      "byteOffset": 6023352,
      "name": "floatBufferViews"
    },
    {
      "buffer": 0,
      "byteLength": 74880,
      "byteOffset": 6042072,
      "byteStride": 16,
      "name": "floatBufferViews"
    }
  ],
  "buffers": [
    {
      "byteLength": 6116952,
      "uri": "scene.bin"
    }
  ],
  "images": [
    {
      "uri": "textures/Hoodie_L_high_baseColor.jpeg"
    },
    {
      "uri": "textures/Hoodie_L_high_metallicRoughness.png"
    },
    {
      "uri": "textures/Hoodie_L_high_normal.png"
    },
    {
      "uri": "textures/Hoodie_R_high_baseColor.jpeg"
    },
    {
      "uri": "textures/Hoodie_R_high_metallicRoughness.png"
    },
    {
      "uri": "textures/Hoodie_R_high_normal.png"
    },
    {
      "uri": "textures/Waist_front_high_baseColor.jpeg"
    },
    {
      "uri": "textures/Waist_front_high_metallicRoughness.png"
    },
    {
      "uri": "textures/Waist_front_high_normal.png"
    },
    {
      "uri": "textures/Waist_back_high_baseColor.jpeg"
    },
    {
      "uri": "textures/Waist_back_high_metallicRoughness.png"
    },
    {
      "uri": "textures/Waist_back_high_normal.png"
    },
    {
      "uri": "textures/Neck_center_high_baseColor.jpeg"
    },
    {
      "uri": "textures/Neck_center_high_metallicRoughness.png"
    },
    {
      "uri": "textures/Neck_center_high_normal.png"
    },
    {
      "uri": "textures/Liace_2_high_baseColor.jpeg"
    },
    {
      "uri": "textures/Liace_2_high_metallicRoughness.png"
    },
    {
      "uri": "textures/Liace_2_high_normal.png"
    },
    {
      "uri": "textures/Liace_1_high_baseColor.jpeg"
    },
    {
      "uri": "textures/Liace_1_high_metallicRoughness.png"
    },
    {
      "uri": "textures/Liace_1_high_normal.png"
    },
    {
      "uri": "textures/Knob_2_high_baseColor.jpeg"
    },
    {
      "uri": "textures/Knob_2_high_metallicRoughness.png"
    },
    {
      "uri": "textures/Knob_2_high_normal.png"
    },
    {
      "uri": "textures/Knob_1_high_baseColor.jpeg"
    },
    {
      "uri": "textures/Knob_1_high_metallicRoughness.png"
    },
    {
      "uri": "textures/Knob_1_high_normal.png"
    },
    {
      "uri": "textures/Neck_3_high_baseColor.jpeg"
    },
    {
      "uri": "textures/Neck_3_high_metallicRoughness.png"
    },
    {
      "uri": "textures/Neck_3_high_normal.png"
    },
    {
      "uri": "textures/Neck_2_high_baseColor.jpeg"
    },
    {
      "uri": "textures/Neck_2_high_metallicRoughness.png"
    },
    {
      "uri": "textures/Neck_2_high_normal.png"
    },
    {
      "uri": "textures/Neck_1_high_baseColor.jpeg"
    },
    {
      "uri": "textures/Neck_1_high_metallicRoughness.png"
    },
    {
      "uri": "textures/Neck_1_high_normal.png"
    },
    {
      "uri": "textures/Up_pocket_In_high_baseColor.jpeg"
    },
    {
      "uri": "textures/Up_pocket_In_high_metallicRoughness.png"
    },
    {
      "uri": "textures/Up_pocket_In_high_normal.png"
    },
    {
      "uri": "textures/Up_pocket_high_baseColor.jpeg"
    },
    {
      "uri": "textures/Up_pocket_high_metallicRoughness.png"
    },
    {
      "uri": "textures/Up_pocket_high_normal.png"
    },
    {
      "uri": "textures/Down_pocket_high_baseColor.jpeg"
    },
    {
      "uri": "textures/Down_pocket_high_metallicRoughness.png"
    },
    {
      "uri": "textures/Down_pocket_high_normal.png"
    },
    {
      "uri": "textures/Handle_L1_high_baseColor.jpeg"
    },
    {
      "uri": "textures/Handle_L1_high_metallicRoughness.png"
    },
    {
      "uri": "textures/Handle_L1_high_normal.png"
    },
    {
      "uri": "textures/Sleeve_L1_high_baseColor.jpeg"
    },
    {
      "uri": "textures/Sleeve_L1_high_metallicRoughness.png"
    },
    {
      "uri": "textures/Sleeve_L1_high_normal.png"
    },
    {
      "uri": "textures/Sleeve_L2_high_baseColor.jpeg"
    },
    {
      "uri": "textures/Sleeve_L2_high_metallicRoughness.png"
    },
    {
      "uri": "textures/Sleeve_L2_high_normal.png"
    },
    {
      "uri": "textures/Sleeve_R2_high_baseColor.jpeg"
    },
    {
      "uri": "textures/Sleeve_R2_high_metallicRoughness.png"
    },
    {
      "uri": "textures/Sleeve_R2_high_normal.png"
    },
    {
      "uri": "textures/Sleeve_R1_high_baseColor.jpeg"
    },
    {
      "uri": "textures/Sleeve_R1_high_metallicRoughness.png"
    },
    {
      "uri": "textures/Sleeve_R1_high_normal.png"
    },
    {
      "uri": "textures/Handle_R1_high_baseColor.jpeg"
    },
    {
      "uri": "textures/Handle_R1_high_metallicRoughness.png"
    },
    {
      "uri": "textures/Handle_R1_high_normal.png"
    },
    {
      "uri": "textures/Handle_R2_high_baseColor.jpeg"
    },
    {
      "uri": "textures/Handle_R2_high_metallicRoughness.png"
    },
    {
      "uri": "textures/Handle_R2_high_normal.png"
    },
    {
      "uri": "textures/Torso_front_high_baseColor.jpeg"
    },
    {
      "uri": "textures/Torso_front_high_metallicRoughness.png"
    },
    {
      "uri": "textures/Torso_front_high_normal.png"
    },
    {
      "uri": "textures/Torso_back_high_baseColor.jpeg"
    },
    {
      "uri": "textures/Torso_back_high_metallicRoughness.png"
    },
    {
      "uri": "textures/Torso_back_high_normal.png"
    }
  ],
  "materials": [
    {
      "doubleSided": true,
      "name": "Hoodie_L_high",
      "normalTexture": {
        "index": 2
      },
      "occlusionTexture": {
        "index": 1
      },
      "pbrMetallicRoughness": {
        "baseColorTexture": {
          "index": 0
        },
        "metallicRoughnessTexture": {
          "index": 1
        }
      }
    },
    {
      "doubleSided": true,
      "name": "Hoodie_R_high",
      "normalTexture": {
        "index": 5
      },
      "occlusionTexture": {
        "index": 4
      },
      "pbrMetallicRoughness": {
        "baseColorTexture": {
          "index": 3
        },
        "metallicRoughnessTexture": {
          "index": 4
        }
      }
    },
    {
      "doubleSided": true,
      "name": "Waist_front_high",
      "normalTexture": {
        "index": 8
      },
      "occlusionTexture": {
        "index": 7
      },
      "pbrMetallicRoughness": {
        "baseColorTexture": {
          "index": 6
        },
        "metallicRoughnessTexture": {
          "index": 7
        }
      }
    },
    {
      "doubleSided": true,
      "name": "Waist_back_high",
      "normalTexture": {
        "index": 11
      },
      "occlusionTexture": {
        "index": 10
      },
      "pbrMetallicRoughness": {
        "baseColorTexture": {
          "index": 9
        },
        "metallicRoughnessTexture": {
          "index": 10
        }
      }
    },
    {
      "doubleSided": true,
      "name": "Neck_center_high",
      "normalTexture": {
        "index": 14
      },
      "occlusionTexture": {
        "index": 13
      },
      "pbrMetallicRoughness": {
        "baseColorTexture": {
          "index": 12
        },
        "metallicRoughnessTexture": {
          "index": 13
        }
      }
    },
    {
      "doubleSided": true,
      "name": "Liace_2_high",
      "normalTexture": {
        "index": 17
      },
      "occlusionTexture": {
        "index": 16
      },
      "pbrMetallicRoughness": {
        "baseColorTexture": {
          "index": 15
        },
        "metallicRoughnessTexture": {
          "index": 16
        }
      }
    },
    {
      "doubleSided": true,
      "name": "Liace_1_high",
      "normalTexture": {
        "index": 20
      },
      "occlusionTexture": {
        "index": 19
      },
      "pbrMetallicRoughness": {
        "baseColorTexture": {
          "index": 18
        },
        "metallicRoughnessTexture": {
          "index": 19
        }
      }
    },
    {
      "doubleSided": true,
      "name": "Knob_2_high",
      "normalTexture": {
        "index": 23
      },
      "occlusionTexture": {
        "index": 22
      },
      "pbrMetallicRoughness": {
        "baseColorTexture": {
          "index": 21
        },
        "metallicRoughnessTexture": {
          "index": 22
        }
      }
    },
    {
      "doubleSided": true,
      "name": "Knob_1_high",
      "normalTexture": {
        "index": 26
      },
      "occlusionTexture": {
        "index": 25
      },
      "pbrMetallicRoughness": {
        "baseColorTexture": {
          "index": 24
        },
        "metallicRoughnessTexture": {
          "index": 25
        }
      }
    },
    {
      "doubleSided": true,
      "name": "Neck_3_high",
      "normalTexture": {
        "index": 29
      },
      "occlusionTexture": {
        "index": 28
      },
      "pbrMetallicRoughness": {
        "baseColorTexture": {
          "index": 27
        },
        "metallicRoughnessTexture": {
          "index": 28
        }
      }
    },
    {
      "doubleSided": true,
      "name": "Neck_2_high",
      "normalTexture": {
        "index": 32
      },
      "occlusionTexture": {
        "index": 31
      },
      "pbrMetallicRoughness": {
        "baseColorTexture": {
          "index": 30
        },
        "metallicRoughnessTexture": {
          "index": 31
        }
      }
    },
    {
      "doubleSided": true,
      "name": "Neck_1_high",
      "normalTexture": {
        "index": 35
      },
      "occlusionTexture": {
        "index": 34
      },
      "pbrMetallicRoughness": {
        "baseColorTexture": {
          "index": 33
        },
        "metallicRoughnessTexture": {
          "index": 34
        }
      }
    },
    {
      "doubleSided": true,
      "name": "Up_pocket_In_high",
      "normalTexture": {
        "index": 38
      },
      "occlusionTexture": {
        "index": 37
      },
      "pbrMetallicRoughness": {
        "baseColorTexture": {
          "index": 36
        },
        "metallicRoughnessTexture": {
          "index": 37
        }
      }
    },
    {
      "doubleSided": true,
      "name": "Up_pocket_high",
      "normalTexture": {
        "index": 41
      },
      "occlusionTexture": {
        "index": 40
      },
      "pbrMetallicRoughness": {
        "baseColorTexture": {
          "index": 39
        },
        "metallicRoughnessTexture": {
          "index": 40
        }
      }
    },
    {
      "doubleSided": true,
      "name": "Down_pocket_high",
      "normalTexture": {
        "index": 44
      },
      "occlusionTexture": {
        "index": 43
      },
      "pbrMetallicRoughness": {
        "baseColorTexture": {
          "index": 42
        },
        "metallicRoughnessTexture": {
          "index": 43
        }
      }
    },
    {
      "doubleSided": true,
      "name": "Handle_L1_high",
      "normalTexture": {
        "index": 47
      },
      "occlusionTexture": {
        "index": 46
      },
      "pbrMetallicRoughness": {
        "baseColorTexture": {
          "index": 45
        },
        "metallicRoughnessTexture": {
          "index": 46
        }
      }
    },
    {
      "doubleSided": true,
      "name": "Sleeve_L1_high",
      "normalTexture": {
        "index": 50
      },
      "occlusionTexture": {
        "index": 49
      },
      "pbrMetallicRoughness": {
        "baseColorTexture": {
          "index": 48
        },
        "metallicRoughnessTexture": {
          "index": 49
        }
      }
    },
    {
      "doubleSided": true,
      "name": "Sleeve_L2_high",
      "normalTexture": {
        "index": 53
      },
      "occlusionTexture": {
        "index": 52
      },
      "pbrMetallicRoughness": {
        "baseColorTexture": {
          "index": 51
        },
        "metallicRoughnessTexture": {
          "index": 52
        }
      }
    },
    {
      "doubleSided": true,
      "name": "Sleeve_R2_high",
      "normalTexture": {
        "index": 56
      },
      "occlusionTexture": {
        "index": 55
      },
      "pbrMetallicRoughness": {
        "baseColorTexture": {
          "index": 54
        },
        "metallicRoughnessTexture": {
          "index": 55
        }
      }
    },
    {
      "doubleSided": true,
      "name": "Sleeve_R1_high",
      "normalTexture": {
        "index": 59
      },
      "occlusionTexture": {
        "index": 58
      },
      "pbrMetallicRoughness": {
        "baseColorTexture": {
          "index": 57
        },
        "metallicRoughnessTexture": {
          "index": 58
        }
      }
    },
    {
      "doubleSided": true,
      "name": "Handle_R1_high",
      "normalTexture": {
        "index": 62
      },
      "occlusionTexture": {
        "index": 61
      },
      "pbrMetallicRoughness": {
        "baseColorTexture": {
          "index": 60
        },
        "metallicRoughnessTexture": {
          "index": 61
        }
      }
    },
    {
      "doubleSided": true,
      "name": "Handle_R2_high",
      "normalTexture": {
        "index": 65
      },
      "occlusionTexture": {
        "index": 64
      },
      "pbrMetallicRoughness": {
        "baseColorTexture": {
          "index": 63
        },
        "metallicRoughnessTexture": {
          "index": 64
        }
      }
    },
    {
      "doubleSided": true,
      "name": "Torso_front_high",
      "normalTexture": {
        "index": 68
      },
      "occlusionTexture": {
        "index": 67
      },
      "pbrMetallicRoughness": {
        "baseColorTexture": {
          "index": 66
        },
        "metallicRoughnessTexture": {
          "index": 67
        }
      }
    },
    {
      "doubleSided": true,
      "name": "Torso_back_high",
      "normalTexture": {
        "index": 71
      },
      "occlusionTexture": {
        "index": 70
      },
      "pbrMetallicRoughness": {
        "baseColorTexture": {
          "index": 69
        },
        "metallicRoughnessTexture": {
          "index": 70
        }
      }
    }
  ],
  "meshes": [
    {
      "name": "Hoodie_L_high_Hoodie_L_high_0",
      "primitives": [
        {
          "attributes": {
            "NORMAL": 1,
            "POSITION": 0,
            "TANGENT": 2,
            "TEXCOORD_0": 3
          },
          "indices": 4,
          "material": 0,
          "mode": 4
        }
      ]
    },
    {
      "name": "Hoodie_R_high_Hoodie_R_high_0",
      "primitives": [
        {
          "attributes": {
            "NORMAL": 6,
            "POSITION": 5,
            "TANGENT": 7,
            "TEXCOORD_0": 8
          },
          "indices": 9,
          "material": 1,
          "mode": 4
        }
      ]
    },
    {
      "name": "Waist_front_high_Waist_front_high_0",
      "primitives": [
        {
          "attributes": {
            "NORMAL": 11,
            "POSITION": 10,
            "TANGENT": 12,
            "TEXCOORD_0": 13
          },
          "indices": 14,
          "material": 2,
          "mode": 4
        }
      ]
    },
    {
      "name": "Waist_back_high_Waist_back_high_0",
      "primitives": [
        {
          "attributes": {
            "NORMAL": 16,
            "POSITION": 15,
            "TANGENT": 17,
            "TEXCOORD_0": 18
          },
          "indices": 19,
          "material": 3,
          "mode": 4
        }
      ]
    },
    {
      "name": "Neck_center_high_Neck_center_high_0",
      "primitives": [
        {
          "attributes": {
            "NORMAL": 21,
            "POSITION": 20,
            "TANGENT": 22,
            "TEXCOORD_0": 23
          },
          "indices": 24,
          "material": 4,
          "mode": 4
        }
      ]
    },
    {
      "name": "Liace_2_high_Liace_2_high_0",
      "primitives": [
        {
          "attributes": {
            "NORMAL": 26,
            "POSITION": 25,
            "TANGENT": 27,
            "TEXCOORD_0": 28
          },
          "indices": 29,
          "material": 5,
          "mode": 4
        }
      ]
    },
    {
      "name": "Liace_1_high_Liace_1_high_0",
      "primitives": [
        {
          "attributes": {
            "NORMAL": 31,
            "POSITION": 30,
            "TANGENT": 32,
            "TEXCOORD_0": 33
          },
          "indices": 34,
          "material": 6,
          "mode": 4
        }
      ]
    },
    {
      "name": "Knob_2_high_Knob_2_high_0",
      "primitives": [
        {
          "attributes": {
            "NORMAL": 36,
            "POSITION": 35,
            "TANGENT": 37,
            "TEXCOORD_0": 38
          },
          "indices": 39,
          "material": 7,
          "mode": 4
        }
      ]
    },
    {
      "name": "Knob_1_high_Knob_1_high_0",
      "primitives": [
        {
          "attributes": {
            "NORMAL": 41,
            "POSITION": 40,
            "TANGENT": 42,
            "TEXCOORD_0": 43
          },
          "indices": 44,
          "material": 8,
          "mode": 4
        }
      ]
    },
    {
      "name": "Neck_3_high_Neck_3_high_0",
      "primitives": [
        {
          "attributes": {
            "NORMAL": 46,
            "POSITION": 45,
            "TANGENT": 47,
            "TEXCOORD_0": 48
          },
          "indices": 49,
          "material": 9,
          "mode": 4
        }
      ]
    },
    {
      "name": "Neck_2_high_Neck_2_high_0",
      "primitives": [
        {
          "attributes": {
            "NORMAL": 51,
            "POSITION": 50,
            "TANGENT": 52,
            "TEXCOORD_0": 53
          },
          "indices": 54,
          "material": 10,
          "mode": 4
        }
      ]
    },
    {
      "name": "Neck_1_high_Neck_1_high_0",
      "primitives": [
        {
          "attributes": {
            "NORMAL": 56,
            "POSITION": 55,
            "TANGENT": 57,
            "TEXCOORD_0": 58
          },
          "indices": 59,
          "material": 11,
          "mode": 4
        }
      ]
    },
    {
      "name": "Up_pocket_In_high_Up_pocket_In_high_0",
      "primitives": [
        {
          "attributes": {
            "NORMAL": 61,
            "POSITION": 60,
            "TANGENT": 62,
            "TEXCOORD_0": 63
          },
          "indices": 64,
          "material": 12,
          "mode": 4
        }
      ]
    },
    {
      "name": "Up_pocket_high_Up_pocket_high_0",
      "primitives": [
        {
          "attributes": {
            "NORMAL": 66,
            "POSITION": 65,
            "TANGENT": 67,
            "TEXCOORD_0": 68
          },
          "indices": 69,
          "material": 13,
          "mode": 4
        }
      ]
    },
    {
      "name": "Down_pocket_high_Down_pocket_high_0",
      "primitives": [
        {
          "attributes": {
            "NORMAL": 71,
            "POSITION": 70,
            "TANGENT": 72,
            "TEXCOORD_0": 73
          },
          "indices": 74,
          "material": 14,
          "mode": 4
        }
      ]
    },
    {
      "name": "Handle_L1_high_Handle_L1_high_0",
      "primitives": [
        {
          "attributes": {
            "NORMAL": 76,
            "POSITION": 75,
            "TANGENT": 77,
            "TEXCOORD_0": 78
          },
          "indices": 79,
          "material": 15,
          "mode": 4
        }
      ]
    },
    {
      "name": "Sleeve_L1_high_Sleeve_L1_high_0",
      "primitives": [
        {
          "attributes": {
            "NORMAL": 81,
            "POSITION": 80,
            "TANGENT": 82,
            "TEXCOORD_0": 83
          },
          "indices": 84,
          "material": 16,
          "mode": 4
        }
      ]
    },
    {
      "name": "Sleeve_L2_high_Sleeve_L2_high_0",
      "primitives": [
        {
          "attributes": {
            "NORMAL": 86,
            "POSITION": 85,
            "TANGENT": 87,
            "TEXCOORD_0": 88
          },
          "indices": 89,
          "material": 17,
          "mode": 4
        }
      ]
    },
    {
      "name": "Sleeve_R2_high_Sleeve_R2_high_0",
      "primitives": [
        {
          "attributes": {
            "NORMAL": 91,
            "POSITION": 90,
            "TANGENT": 92,
            "TEXCOORD_0": 93
          },
          "indices": 94,
          "material": 18,
          "mode": 4
        }
      ]
    },
    {
      "name": "Sleeve_R1_high_Sleeve_R1_high_0",
      "primitives": [
        {
          "attributes": {
            "NORMAL": 96,
            "POSITION": 95,
            "TANGENT": 97,
            "TEXCOORD_0": 98
          },
          "indices": 99,
          "material": 19,
          "mode": 4
        }
      ]
    },
    {
      "name": "Handle_R1_high_Handle_R1_high_0",
      "primitives": [
        {
          "attributes": {
            "NORMAL": 101,
            "POSITION": 100,
            "TANGENT": 102,
            "TEXCOORD_0": 103
          },
          "indices": 104,
          "material": 20,
          "mode": 4
        }
      ]
    },
    {
      "name": "Handle_R2_high_Handle_R2_high_0",
      "primitives": [
        {
          "attributes": {
            "NORMAL": 106,
            "POSITION": 105,
            "TANGENT": 107,
            "TEXCOORD_0": 108
          },
          "indices": 109,
          "material": 21,
          "mode": 4
        }
      ]
    },
    {
      "name": "Torso_front_high_Torso_front_high_0",
      "primitives": [
        {
          "attributes": {
            "NORMAL": 111,
            "POSITION": 110,
            "TANGENT": 112,
            "TEXCOORD_0": 113
          },
          "indices": 114,
          "material": 22,
          "mode": 4
        }
      ]
    },
    {
      "name": "Torso_back_high_Torso_back_high_0",
      "primitives": [
        {
          "attributes": {
            "NORMAL": 116,
            "POSITION": 115,
            "TANGENT": 117,
            "TEXCOORD_0": 118
          },
          "indices": 119,
          "material": 23,
          "mode": 4
        }
      ]
    }
  ],
  "nodes": [
    {
      "children": [
        1
      ],
      "matrix": [
        1.3879709243774414,
        0.0,
        0.0,
        0.0,
        0.0,
        3.081914555508195e-16,
        -1.3879709243774414,
        0.0,
        0.0,
        1.3879709243774414,
        3.081914555508195e-16,
        0.0,
        -1.4759061741642654e-05,
        -2.899979790527133e-06,
        -3.380883572390303e-05,
        1.0
      ],
      "name": "Sketchfab_model"
    },
    {
      "children": [
        2
      ],
      "matrix": [
        1.0,
        0.0,
        0.0,
        0.0,
        0.0,
        0.0,
        1.0,
        0.0,
        0.0,
        -1.0,
        0.0,
        0.0,
        0.0,
        0.0,
        0.0,
        1.0
      ],
      "name": "Model.fbx"
    },
    {
      "children": [
        3
      ],
      "name": "Object_2"
    },
    {
      "children": [
        4,
        6,
        8,
        10,
        12,
        14,
        16,
        18,
        20,
        22,
        24,
        26,
        28,
        30,
        32,
        34,
        36,
        38,
        40,
        42,
        44,
        46,
        48,
        50
      ],
      "name": "RootNode"
    },
    {
      "children": [
        5
      ],
      "name": "Hoodie_L_high",
      "rotation": [
        -1.579968184821194e-14,
        1.0,
        -8.146034247147327e-08,
        -1.9470718370939721e-07
      ],
      "scale": [
        358.74005126953125,
        358.74005126953125,
        358.74005126953125
      ],
      "translation": [
        0.0,
        384.0054931640625,
        0.0
      ]
    },
    {
      "mesh": 0,
      "name": "Hoodie_L_high_Hoodie_L_high_0"
    },
    {
      "children": [
        7
      ],
      "name": "Hoodie_R_high",
      "rotation": [
        -1.579968184821194e-14,
        1.0,
        -8.146034247147327e-08,
        -1.9470718370939721e-07
      ],
      "scale": [
        358.74005126953125,
        358.74005126953125,
        358.74005126953125
      ],
      "translation": [
        0.0,
        384.0054931640625,
        0.0
      ]
    },
    {
      "mesh": 1,
      "name": "Hoodie_R_high_Hoodie_R_high_0"
    },
    {
      "children": [
        9
      ],
      "name": "Waist_front_high",
      "rotation": [
        -1.579968184821194e-14,
        1.0,
        -8.146034247147327e-08,
        -1.9470718370939721e-07
      ],
      "scale": [
        358.74005126953125,
        358.74005126953125,
        358.74005126953125
      ],
      "translation": [
        0.0,
        384.0054931640625,
        0.0
      ]
    },
    {
      "mesh": 2,
      "name": "Waist_front_high_Waist_front_high_0"
    },
    {
      "children": [
        11
      ],
      "name": "Waist_back_high",
      "rotation": [
        -1.579968184821194e-14,
        1.0,
        -8.146034247147327e-08,
        -1.9470718370939721e-07
      ],
      "scale": [
        358.74005126953125,
        358.74005126953125,
        358.74005126953125
      ],
      "translation": [
        0.0,
        384.0054931640625,
        0.0
      ]
    },
    {
      "mesh": 3,
      "name": "Waist_back_high_Waist_back_high_0"
    },
    {
      "children": [
        13
      ],
      "name": "Neck_center_high",
      "rotation": [
        -1.579968184821194e-14,
        1.0,
        -8.146034247147327e-08,
        -1.9470718370939721e-07
      ],
      "scale": [
        358.74005126953125,
        358.74005126953125,
        358.74005126953125
      ],
      "translation": [
        0.0,
        384.0054931640625,
        0.0
      ]
    },
    {
      "mesh": 4,
      "name": "Neck_center_high_Neck_center_high_0"
    },
    {
      "children": [
        15
      ],
      "name": "Liace_2_high",
      "rotation": [
        -1.579968184821194e-14,
        1.0,
        -8.146034247147327e-08,
        -1.9470718370939721e-07
      ],
      "scale": [
        358.74005126953125,
        358.74005126953125,
        358.74005126953125
      ],
      "translation": [
        0.0,
        384.0054931640625,
        0.0
      ]
    },
    {
      "mesh": 5,
      "name": "Liace_2_high_Liace_2_high_0"
    },
    {
      "children": [
        17
      ],
      "name": "Liace_1_high",
      "rotation": [
        -1.579968184821194e-14,
        1.0,
        -8.146034247147327e-08,
        -1.9470718370939721e-07
      ],
      "scale": [
        358.74005126953125,
        358.74005126953125,
        358.74005126953125
      ],
      "translation": [
        0.0,
        384.0054931640625,
        0.0
      ]
    },
    {
      "mesh": 6,
      "name": "Liace_1_high_Liace_1_high_0"
    },
    {
      "children": [
        19
      ],
      "name": "Knob_2_high",
      "rotation": [
        -1.579968184821194e-14,
        1.0,
        -8.146034247147327e-08,
        -1.9470718370939721e-07
      ],
      "scale": [
        358.74005126953125,
        358.74005126953125,
        358.74005126953125
      ],
      "translation": [
        0.0,
        384.0054931640625,
        0.0
      ]
    },
    {
      "mesh": 7,
      "name": "Knob_2_high_Knob_2_high_0"
    },
    {
      "children": [
        21
      ],
      "name": "Knob_1_high",
      "rotation": [
        -1.579968184821194e-14,
        1.0,
        -8.146034247147327e-08,
        -1.9470718370939721e-07
      ],
      "scale": [
        358.74005126953125,
        358.74005126953125,
        358.74005126953125
      ],
      "translation": [
        0.0,
        384.0054931640625,
        0.0
      ]
    },
    {
      "mesh": 8,
      "name": "Knob_1_high_Knob_1_high_0"
    },
    {
      "children": [
        23
      ],
      "name": "Neck_3_high",
      "rotation": [
        -1.579968184821194e-14,
        1.0,
        -8.146034247147327e-08,
        -1.9470718370939721e-07
      ],
      "scale": [
        358.74005126953125,
        358.74005126953125,
        358.74005126953125
      ],
      "translation": [
        0.0,
        384.0054931640625,
        0.0
      ]
    },
    {
      "mesh": 9,
      "name": "Neck_3_high_Neck_3_high_0"
    },
    {
      "children": [
        25
      ],
      "name": "Neck_2_high",
      "rotation": [
        -1.579968184821194e-14,
        1.0,
        -8.146034247147327e-08,
        -1.9470718370939721e-07
      ],
      "scale": [
        358.74005126953125,
        358.74005126953125,
        358.74005126953125
      ],
      "translation": [
        0.0,
        384.0054931640625,
        0.0
      ]
    },
    {
      "mesh": 10,
      "name": "Neck_2_high_Neck_2_high_0"
    },
    {
      "children": [
        27
      ],
      "name": "Neck_1_high",
      "rotation": [
        -1.579968184821194e-14,
        1.0,
        -8.146034247147327e-08,
        -1.9470718370939721e-07
      ],
      "scale": [
        358.74005126953125,
        358.74005126953125,
        358.74005126953125
      ],
      "translation": [
        0.0,
        384.0054931640625,
        0.0
      ]
    },
    {
      "mesh": 11,
      "name": "Neck_1_high_Neck_1_high_0"
    },
    {
      "children": [
        29
      ],
      "name": "Up_pocket_In_high",
      "rotation": [
        -1.579968184821194e-14,
        1.0,
        -8.146034247147327e-08,
        -1.9470718370939721e-07
      ],
      "scale": [
        358.74005126953125,
        358.74005126953125,
        358.74005126953125
      ],
      "translation": [
        0.0,
        384.0054931640625,
        0.0
      ]
    },
    {
      "mesh": 12,
      "name": "Up_pocket_In_high_Up_pocket_In_high_0"
    },
    {
      "children": [
        31
      ],
      "name": "Up_pocket_high",
      "rotation": [
        -1.579968184821194e-14,
        1.0,
        -8.146034247147327e-08,
        -1.9470718370939721e-07
      ],
      "scale": [
        358.74005126953125,
        358.74005126953125,
        358.74005126953125
      ],
      "translation": [
        0.0,
        384.0054931640625,
        0.0
      ]
    },
    {
      "mesh": 13,
      "name": "Up_pocket_high_Up_pocket_high_0"
    },
    {
      "children": [
        33
      ],
      "name": "Down_pocket_high",
      "rotation": [
        -1.579968184821194e-14,
        1.0,
        -8.146034247147327e-08,
        -1.9470718370939721e-07
      ],
      "scale": [
        358.74005126953125,
        358.74005126953125,
        358.74005126953125
      ],
      "translation": [
        0.0,
        384.0054931640625,
        0.0
      ]
    },
    {
      "mesh": 14,
      "name": "Down_pocket_high_Down_pocket_high_0"
    },
    {
      "children": [
        35
      ],
      "name": "Handle_L1_high",
      "rotation": [
        -1.579968184821194e-14,
        1.0,
        -8.146034247147327e-08,
        -1.9470718370939721e-07
      ],
      "scale": [
        358.74005126953125,
        358.74005126953125,
        358.74005126953125
      ],
      "translation": [
        0.0,
        384.0054931640625,
        0.0
      ]
    },
    {
      "mesh": 15,
      "name": "Handle_L1_high_Handle_L1_high_0"
    },
    {
      "children": [
        37
      ],
      "name": "Sleeve_L1_high",
      "rotation": [
        -1.579968184821194e-14,
        1.0,
        -8.146034247147327e-08,
        -1.9470718370939721e-07
      ],
      "scale": [
        358.74005126953125,
        358.74005126953125,
        358.74005126953125
      ],
      "translation": [
        0.0,
        384.0054931640625,
        0.0
      ]
    },
    {
      "mesh": 16,
      "name": "Sleeve_L1_high_Sleeve_L1_high_0"
    },
    {
      "children": [
        39
      ],
      "name": "Sleeve_L2_high",
      "rotation": [
        -1.579968184821194e-14,
        1.0,
        -8.146034247147327e-08,
        -1.9470718370939721e-07
      ],
      "scale": [
        358.74005126953125,
        358.74005126953125,
        358.74005126953125
      ],
      "translation": [
        0.0,
        384.0054931640625,
        0.0
      ]
    },
    {
      "mesh": 17,
      "name": "Sleeve_L2_high_Sleeve_L2_high_0"
    },
    {
      "children": [
        41
      ],
      "name": "Sleeve_R2_high",
      "rotation": [
        -1.579968184821194e-14,
        1.0,
        -8.146034247147327e-08,
        -1.9470718370939721e-07
      ],
      "scale": [
        358.74005126953125,
        358.74005126953125,
        358.74005126953125
      ],
      "translation": [
        0.0,
        384.0054931640625,
        0.0
      ]
    },
    {
      "mesh": 18,
      "name": "Sleeve_R2_high_Sleeve_R2_high_0"
    },
    {
      "children": [
        43
      ],
      "name": "Sleeve_R1_high",
      "rotation": [
        -1.579968184821194e-14,
        1.0,
        -8.146034247147327e-08,
        -1.9470718370939721e-07
      ],
      "scale": [
        358.74005126953125,
        358.74005126953125,
        358.74005126953125
      ],
      "translation": [
        0.0,
        384.0054931640625,
        0.0
      ]
    },
    {
      "mesh": 19,
      "name": "Sleeve_R1_high_Sleeve_R1_high_0"
    },
    {
      "children": [
        45
      ],
      "name": "Handle_R1_high",
      "rotation": [
        -1.579968184821194e-14,
        1.0,
        -8.146034247147327e-08,
        -1.9470718370939721e-07
      ],
      "scale": [
        358.74005126953125,
        358.74005126953125,
        358.74005126953125
      ],
      "translation": [
        0.0,
        384.0054931640625,
        0.0
      ]
    },
    {
      "mesh": 20,
      "name": "Handle_R1_high_Handle_R1_high_0"
    },
    {
      "children": [
        47
      ],
      "name": "Handle_R2_high",
      "rotation": [
        -1.579968184821194e-14,
        1.0,
        -8.146034247147327e-08,
        -1.9470718370939721e-07
      ],
      "scale": [
        358.74005126953125,
        358.74005126953125,
        358.74005126953125
      ],
      "translation": [
        0.0,
        384.0054931640625,
        0.0
      ]
    },
    {
      "mesh": 21,
      "name": "Handle_R2_high_Handle_R2_high_0"
    },
    {
      "children": [
        49
      ],
      "name": "Torso_front_high",
      "rotation": [
        -1.579968184821194e-14,
        1.0,
        -8.146034247147327e-08,
        -1.9470718370939721e-07
      ],
      "scale": [
        358.74005126953125,
        358.74005126953125,
        358.74005126953125
      ],
      "translation": [
        0.0,
        384.0054931640625,
        0.0
      ]
    },
    {
      "mesh": 22,
      "name": "Torso_front_high_Torso_front_high_0"
    },
    {
      "children": [
        51
      ],
      "name": "Torso_back_high",
      "rotation": [
        -1.579968184821194e-14,
        1.0,
        -8.146034247147327e-08,
        -1.9470718370939721e-07
      ],
      "scale": [
        358.74005126953125,
        358.74005126953125,
        358.74005126953125
      ],
      "translation": [
        0.0,
        384.0054931640625,
        0.0
      ]
    },
    {
      "mesh": 23,
      "name": "Torso_back_high_Torso_back_high_0"
    }
  ],
  "samplers": [
    {
      "magFilter": 9729,
      "minFilter": 9987,
      "wrapS": 10497,
      "wrapT": 10497
    }
  ],
  "scene": 0,
  "scenes": [
    {
      "name": "Sketchfab_Scene",
      "nodes": [
        0
      ]
    }
  ],
  "textures": [
    {
      "sampler": 0,
      "source": 0
    },
    {
      "sampler": 0,
      "source": 1
    },
    {
      "sampler": 0,
      "source": 2
    },
    {
      "sampler": 0,
      "source": 3
    },
    {
      "sampler": 0,
      "source": 4
    },
    {
      "sampler": 0,
      "source": 5
    },
    {
      "sampler": 0,
      "source": 6
    },
    {
      "sampler": 0,
      "source": 7
    },
    {
      "sampler": 0,
      "source": 8
    },
    {
      "sampler": 0,
      "source": 9
    },
    {
      "sampler": 0,
      "source": 10
    },
    {
      "sampler": 0,
      "source": 11
    },
    {
      "sampler": 0,
      "source": 12
    },
    {
      "sampler": 0,
      "source": 13
    },
    {
      "sampler": 0,
      "source": 14
    },
    {
      "sampler": 0,
      "source": 15
    },
    {
      "sampler": 0,
      "source": 16
    },
    {
      "sampler": 0,
      "source": 17
    },
    {
      "sampler": 0,
      "source": 18
    },
    {
      "sampler": 0,
      "source": 19
    },
    {
      "sampler": 0,
      "source": 20
    },
    {
      "sampler": 0,
      "source": 21
    },
    {
      "sampler": 0,
      "source": 22
    },
    {
      "sampler": 0,
      "source": 23
    },
    {
      "sampler": 0,
      "source": 24
    },
    {
      "sampler": 0,
      "source": 25
    },
    {
      "sampler": 0,
      "source": 26
    },
    {
      "sampler": 0,
      "source": 27
    },
    {
      "sampler": 0,
      "source": 28
    },
    {
      "sampler": 0,
      "source": 29
    },
    {
      "sampler": 0,
      "source": 30
    },
    {
      "sampler": 0,
      "source": 31
    },
    {
      "sampler": 0,
      "source": 32
    },
    {
      "sampler": 0,
      "source": 33
    },
    {
      "sampler": 0,
      "source": 34
    },
    {
      "sampler": 0,
      "source": 35
    },
    {
      "sampler": 0,
      "source": 36
    },
    {
      "sampler": 0,
      "source": 37
    },
    {
      "sampler": 0,
      "source": 38
    },
    {
      "sampler": 0,
      "source": 39
    },
    {
      "sampler": 0,
      "source": 40
    },
    {
      "sampler": 0,
      "source": 41
    },
    {
      "sampler": 0,
      "source": 42
    },
    {
      "sampler": 0,
      "source": 43
    },
    {
      "sampler": 0,
      "source": 44
    },
    {
      "sampler": 0,
      "source": 45
    },
    {
      "sampler": 0,
      "source": 46
    },
    {
      "sampler": 0,
      "source": 47
    },
    {
      "sampler": 0,
      "source": 48
    },
    {
      "sampler": 0,
      "source": 49
    },
    {
      "sampler": 0,
      "source": 50
    },
    {
      "sampler": 0,
      "source": 51
    },
    {
      "sampler": 0,
      "source": 52
    },
    {
      "sampler": 0,
      "source": 53
    },
    {
      "sampler": 0,
      "source": 54
    },
    {
      "sampler": 0,
      "source": 55
    },
    {
      "sampler": 0,
      "source": 56
    },
    {
      "sampler": 0,
      "source": 57
    },
    {
      "sampler": 0,
      "source": 58
    },
    {
      "sampler": 0,
      "source": 59
    },
    {
      "sampler": 0,
      "source": 60
    },
    {
      "sampler": 0,
      "source": 61
    },
    {
      "sampler": 0,
      "source": 62
    },
    {
      "sampler": 0,
      "source": 63
    },
    {
      "sampler": 0,
      "source": 64
    },
    {
      "sampler": 0,
      "source": 65
    },
    {
      "sampler": 0,
      "source": 66
    },
    {
      "sampler": 0,
      "source": 67
    },
    {
      "sampler": 0,
      "source": 68
    },
    {
      "sampler": 0,
      "source": 69
    },
    {
      "sampler": 0,
      "source": 70
    },
    {
      "sampler": 0,
      "source": 71
    }
  ]
}
