{
  "accessors": [
    {
      "bufferView": 2,
      "componentType": 5126,
      "count": 842,
      "max": [
        12.970088958740234,
        13.93731689453125,
        15.910625457763672
      ],
      "min": [
        -12.81587028503418,
        -0.08795579522848129,
        -16.00120735168457
      ],
      "type": "VEC3"
    },
    {
      "bufferView": 2,
      "byteOffset": 10104,
      "componentType": 5126,
      "count": 842,
      "max": [
        0.999997079372406,
        0.9999871253967285,
        0.9999924898147583
      ],
      "min": [
        -0.9999955892562866,
        -0.9999998807907104,
        -0.9999966025352478
      ],
      "type": "VEC3"
    },
    {
      "bufferView": 3,
      "componentType": 5126,
      "count": 842,
      "max": [
        0.9999966025352478,
        0.9999868869781494,
        0.8970678448677063,
        1.0
      ],
      "min": [
        -0.9993481040000916,
        -0.999993085861206,
        -1.0,
        1.0
      ],
      "type": "VEC4"
    },
    {
      "bufferView": 1,
      "componentType": 5126,
      "count": 842,
      "max": [
        0.9943506717681885,
        0.9975885152816772
      ],
      "min": [
        0.06148862466216087,
        0.0029296875
      ],
      "type": "VEC2"
    },
    {
      "bufferView": 1,
      "byteOffset": 6736,
      "componentType": 5126,
      "count": 842,
      "max": [
        0.9943506717681885,
        0.9975885152816772
      ],
      "min": [
        0.06148862466216087,
        0.0029296875
      ],
      "type": "VEC2"
    },
    {
      "bufferView": 0,
      "componentType": 5125,
      "count": 4464,
      "type": "SCALAR"
    }
  ],
  "asset": {
    "extras": {
      "author": "tblunden (https://sketchfab.com/tblunden)",
      "license": "CC-BY-4.0 (http://creativecommons.org/licenses/by/4.0/)",
      "source": "https://sketchfab.com/3d-models/parcel-01-cbc949af3c3e4ece8c92ea7b6c141f84",
      "title": "Parcel 01"
    },
    "generator": "Sketchfab-12.66.0",
    "version": "2.0"
  },
  "bufferViews": [
    {
      "buffer": 0,
      "byteLength": 17856,
      "name": "floatBufferViews",
      "target": 34963
    },
    {
      "buffer": 0,
      "byteLength": 13472,
      "byteOffset": 17856,
      "byteStride": 8,
      "name": "floatBufferViews",
      "target": 34962
    },
    {
      "buffer": 0,
      "byteLength": 20208,
      "byteOffset": 31328,
      "byteStride": 12,
      "name": "floatBufferViews",
      "target": 34962
    },
    {
      "buffer": 0,
      "byteLength": 13472,
      "byteOffset": 51536,
      "byteStride": 16,
      "name": "floatBufferViews",
      "target": 34962
    }
  ],
  "buffers": [
    {
      "byteLength": 65008,
      "uri": "scene.bin"
    }
  ],
  "images": [
    {
      "uri": "textures/M_Parcel_01_baseColor.png"
    },
    {
      "uri": "textures/M_Parcel_01_metallicRoughness.png"
    },
    {
      "uri": "textures/M_Parcel_01_normal.png"
    }
  ],
  "materials": [
    {
      "doubleSided": true,
      "name": "M_Parcel_01",
      "normalTexture": {
        "index": 2
      },
      "occlusionTexture": {
        "index": 1
      },
      "pbrMetallicRoughness": {
        "baseColorTexture": {
          "index": 0
        },
        "metallicFactor": 0.0,
        "metallicRoughnessTexture": {
          "index": 1
        }
      }
    }
  ],
  "meshes": [
    {
      "name": "SM_Parcel_01_M_Parcel_01_0",
      "primitives": [
        {
          "attributes": {
            "NORMAL": 1,
            "POSITION": 0,
            "TANGENT": 2,
            "TEXCOORD_0": 3,
            "TEXCOORD_1": 4
          },
          "indices": 5,
          "material": 0,
          "mode": 4
        }
      ]
    }
  ],
  "nodes": [
    {
      "children": [
        1
      ],
      "matrix": [
        1.0,
        0.0,
        0.0,
        0.0,
        0.0,
        2.220446049250313e-16,
        -1.0,
        0.0,
        0.0,
        1.0,
        2.220446049250313e-16,
        0.0,
        0.0,
        0.0,
        0.0,
        1.0
      ],
      "name": "Sketchfab_model"
    },
    {
      "children": [
        2
      ],
      "matrix": [
        0.009999999776482582,
        0.0,
        0.0,
        0.0,
        0.0,
        0.0,
        0.009999999776482582,
        0.0,
        0.0,
        -0.009999999776482582,
        0.0,
        0.0,
        0.0,
        0.0,
        0.0,
        1.0
      ],
      "name": "SM_Parcel_01.fbx"
    },
    {
      "children": [
        3
      ],
      "name": "RootNode"
    },
    {
      "children": [
        4
      ],
      "name": "SM_Parcel_01"
    },
    {
      "mesh": 0,
      "name": "SM_Parcel_01_M_Parcel_01_0"
    }
  ],
  "samplers": [
    {
      "magFilter": 9729,
      "minFilter": 9987,
      "wrapS": 10497,
      "wrapT": 10497
    }
  ],
  "scene": 0,
  "scenes": [
    {
      "name": "Sketchfab_Scene",
      "nodes": [
        0
      ]
    }
  ],
  "textures": [
    {
      "sampler": 0,
      "source": 0
    },
    {
      "sampler": 0,
      "source": 1
    },
    {
      "sampler": 0,
      "source": 2
    }
  ]
}
